<?xml version="1.0" encoding="UTF-8" standalone="no"?>
<!-- Generator: Adobe Illustrator 16.0.4, SVG Export Plug-In . SVG Version: 6.00 Build 0)  -->

<svg version="1.1" id="Layer_1" xmlns="http://www.w3.org/2000/svg" xmlns:xlink="http://www.w3.org/1999/xlink" x="0px" y="0px"
	 width="50px" height="50px" viewBox="0 0 306 344.35" enable-background="new 0 0 306 344.35" xml:space="preserve">
<path
   fill="#8c95ad"
   style="stroke-width:0.1452011"
   d="M 25 0 C 24.302563 0 23.605212 0.15348125 23.076172 0.45898438 L 4.7089844 11.0625 C 3.6507587 11.673361 2.7851562 13.172664 2.7851562 14.394531 L 2.7851562 35.605469 C 2.7851562 36.216475 3.0008363 36.896109 3.3496094 37.5 C 3.6982372 38.103891 4.1800168 38.632142 4.7089844 38.9375 L 23.076172 49.541016 C 24.134252 50.152022 25.865748 50.152022 26.923828 49.541016 L 45.291016 38.9375 C 45.820128 38.631997 46.301763 38.104037 46.650391 37.5 C 46.999018 36.896109 47.214844 36.216475 47.214844 35.605469 L 47.214844 14.394531 C 47.214844 13.783525 46.999164 13.103891 46.650391 12.5 C 46.301618 11.895963 45.819983 11.368003 45.291016 11.0625 L 26.923828 0.45898438 C 26.394788 0.15348125 25.697437 0 25 0 z M 25 10.189453 C 30.269638 10.189453 35.184673 13.025011 37.826172 17.589844 L 31.416016 21.298828 C 30.09396 19.013944 27.6354 17.595703 25 17.595703 C 20.916655 17.595703 17.595703 20.916655 17.595703 25 C 17.595703 29.0832 20.916655 32.404297 25 32.404297 C 27.63569 32.404297 30.093814 30.986492 31.416016 28.701172 L 37.826172 32.410156 C 35.184673 36.975424 30.269929 39.810547 25 39.810547 C 16.833454 39.810547 10.189453 33.166546 10.189453 25 C 10.189453 16.833454 16.833454 10.189453 25 10.189453 z M 36.519531 22.53125 L 38.164062 22.53125 L 38.164062 24.177734 L 39.810547 24.177734 L 39.810547 25.822266 L 38.164062 25.822266 L 38.164062 27.46875 L 36.519531 27.46875 L 36.519531 25.822266 L 34.873047 25.822266 L 34.873047 24.177734 L 36.519531 24.177734 L 36.519531 22.53125 z M 42.691406 22.53125 L 44.335938 22.53125 L 44.335938 24.177734 L 45.982422 24.177734 L 45.982422 25.822266 L 44.335938 25.822266 L 44.335938 27.46875 L 42.691406 27.46875 L 42.691406 25.822266 L 41.044922 25.822266 L 41.044922 24.177734 L 42.691406 24.177734 L 42.691406 22.53125 z "
   transform="matrix(6.887,0,0,6.887,-19.175,0)"
   id="path6" />


</svg>