<?xml version="1.0" encoding="utf-8" ?>
<?xml-stylesheet type="text/css" href="Style/animation.css"?>
<svg baseProfile="full" height="1080px" version="1.1" width="1920px" xmlns="http://www.w3.org/2000/svg" xmlns:ev="http://www.w3.org/2001/xml-events" xmlns:xlink="http://www.w3.org/1999/xlink"><defs /><polygon fill="rgb(1,177,185)" id="hex0" points="0.0,0.0 43.30127018922193,25.0 86.60254037844386,0.0 86.60254037844386,-50.0 43.30127018922193,-75.0 0.0,-50.0" stroke="black" stroke-width="2" /><polygon fill="rgb(1,177,185)" id="hex0" points="-43.30127018922193,75.0 0.0,100.0 43.30127018922193,75.0 43.30127018922193,25.0 0.0,0.0 -43.30127018922193,25.0" stroke="black" stroke-width="2" /><polygon fill="rgb(1,177,185)" id="hex0" points="0.0,150.0 43.30127018922193,175.0 86.60254037844386,150.0 86.60254037844386,100.0 43.30127018922193,75.0 0.0,100.0" stroke="black" stroke-width="2" /><polygon fill="rgb(1,177,185)" id="hex0" points="-43.30127018922193,225.0 0.0,250.0 43.30127018922193,225.0 43.30127018922193,175.0 0.0,150.0 -43.30127018922193,175.0" stroke="black" stroke-width="2" /><polygon fill="rgb(1,177,185)" id="hex0" points="0.0,300.0 43.30127018922193,325.0 86.60254037844386,300.0 86.60254037844386,250.0 43.30127018922193,225.0 0.0,250.0" stroke="black" stroke-width="2" /><polygon fill="rgb(1,177,185)" id="hex0" points="-43.30127018922193,375.0 0.0,400.0 43.30127018922193,375.0 43.30127018922193,325.0 0.0,300.0 -43.30127018922193,325.0" stroke="black" stroke-width="2" /><polygon fill="rgb(1,177,185)" id="hex0" points="0.0,450.0 43.30127018922193,475.0 86.60254037844386,450.0 86.60254037844386,400.0 43.30127018922193,375.0 0.0,400.0" stroke="black" stroke-width="2" /><polygon fill="rgb(1,177,185)" id="hex0" points="-43.30127018922193,525.0 0.0,550.0 43.30127018922193,525.0 43.30127018922193,475.0 0.0,450.0 -43.30127018922193,475.0" stroke="black" stroke-width="2" /><polygon fill="rgb(1,177,185)" id="hex0" points="0.0,600.0 43.30127018922193,625.0 86.60254037844386,600.0 86.60254037844386,550.0 43.30127018922193,525.0 0.0,550.0" stroke="black" stroke-width="2" /><polygon fill="rgb(1,177,185)" id="hex0" points="-43.30127018922193,675.0 0.0,700.0 43.30127018922193,675.0 43.30127018922193,625.0 0.0,600.0 -43.30127018922193,625.0" stroke="black" stroke-width="2" /><polygon fill="rgb(1,177,185)" id="hex0" points="0.0,750.0 43.30127018922193,775.0 86.60254037844386,750.0 86.60254037844386,700.0 43.30127018922193,675.0 0.0,700.0" stroke="black" stroke-width="2" /><polygon fill="rgb(1,177,185)" id="hex0" points="-43.30127018922193,825.0 0.0,850.0 43.30127018922193,825.0 43.30127018922193,775.0 0.0,750.0 -43.30127018922193,775.0" stroke="black" stroke-width="2" /><polygon fill="rgb(1,177,185)" id="hex0" points="0.0,900.0 43.30127018922193,925.0 86.60254037844386,900.0 86.60254037844386,850.0 43.30127018922193,825.0 0.0,850.0" stroke="black" stroke-width="2" /><polygon fill="rgb(1,177,185)" id="hex0" points="-43.30127018922193,975.0 0.0,1000.0 43.30127018922193,975.0 43.30127018922193,925.0 0.0,900.0 -43.30127018922193,925.0" stroke="black" stroke-width="2" /><polygon fill="rgb(1,177,185)" id="hex0" points="0.0,1050.0 43.30127018922193,1075.0 86.60254037844386,1050.0 86.60254037844386,1000.0 43.30127018922193,975.0 0.0,1000.0" stroke="black" stroke-width="2" /><polygon fill="rgb(1,177,185)" id="hex0" points="-43.30127018922193,1125.0 0.0,1150.0 43.30127018922193,1125.0 43.30127018922193,1075.0 0.0,1050.0 -43.30127018922193,1075.0" stroke="black" stroke-width="2" /><polygon fill="rgb(1,177,185)" id="hex1" points="86.60254037844386,0.0 129.9038105676658,25.0 173.20508075688772,0.0 173.20508075688772,-50.0 129.9038105676658,-75.0 86.60254037844386,-50.0" stroke="black" stroke-width="2" /><polygon fill="rgb(1,177,185)" id="hex1" points="43.30127018922193,75.0 86.60254037844386,100.0 129.9038105676658,75.0 129.9038105676658,25.0 86.60254037844386,0.0 43.30127018922193,25.0" stroke="black" stroke-width="2" /><polygon fill="rgb(1,177,185)" id="hex1" points="86.60254037844386,150.0 129.9038105676658,175.0 173.20508075688772,150.0 173.20508075688772,100.0 129.9038105676658,75.0 86.60254037844386,100.0" stroke="black" stroke-width="2" /><polygon fill="rgb(1,177,185)" id="hex1" points="43.30127018922193,225.0 86.60254037844386,250.0 129.9038105676658,225.0 129.9038105676658,175.0 86.60254037844386,150.0 43.30127018922193,175.0" stroke="black" stroke-width="2" /><polygon fill="rgb(1,177,185)" id="hex1" points="86.60254037844386,300.0 129.9038105676658,325.0 173.20508075688772,300.0 173.20508075688772,250.0 129.9038105676658,225.0 86.60254037844386,250.0" stroke="black" stroke-width="2" /><polygon fill="rgb(1,177,185)" id="hex1" points="43.30127018922193,375.0 86.60254037844386,400.0 129.9038105676658,375.0 129.9038105676658,325.0 86.60254037844386,300.0 43.30127018922193,325.0" stroke="black" stroke-width="2" /><polygon fill="rgb(1,177,185)" id="hex1" points="86.60254037844386,450.0 129.9038105676658,475.0 173.20508075688772,450.0 173.20508075688772,400.0 129.9038105676658,375.0 86.60254037844386,400.0" stroke="black" stroke-width="2" /><polygon fill="rgb(1,177,185)" id="hex1" points="43.30127018922193,525.0 86.60254037844386,550.0 129.9038105676658,525.0 129.9038105676658,475.0 86.60254037844386,450.0 43.30127018922193,475.0" stroke="black" stroke-width="2" /><polygon fill="rgb(1,177,185)" id="hex1" points="86.60254037844386,600.0 129.9038105676658,625.0 173.20508075688772,600.0 173.20508075688772,550.0 129.9038105676658,525.0 86.60254037844386,550.0" stroke="black" stroke-width="2" /><polygon fill="rgb(1,177,185)" id="hex1" points="43.30127018922193,675.0 86.60254037844386,700.0 129.9038105676658,675.0 129.9038105676658,625.0 86.60254037844386,600.0 43.30127018922193,625.0" stroke="black" stroke-width="2" /><polygon fill="rgb(1,177,185)" id="hex1" points="86.60254037844386,750.0 129.9038105676658,775.0 173.20508075688772,750.0 173.20508075688772,700.0 129.9038105676658,675.0 86.60254037844386,700.0" stroke="black" stroke-width="2" /><polygon fill="rgb(1,177,185)" id="hex1" points="43.30127018922193,825.0 86.60254037844386,850.0 129.9038105676658,825.0 129.9038105676658,775.0 86.60254037844386,750.0 43.30127018922193,775.0" stroke="black" stroke-width="2" /><polygon fill="rgb(1,177,185)" id="hex1" points="86.60254037844386,900.0 129.9038105676658,925.0 173.20508075688772,900.0 173.20508075688772,850.0 129.9038105676658,825.0 86.60254037844386,850.0" stroke="black" stroke-width="2" /><polygon fill="rgb(1,177,185)" id="hex1" points="43.30127018922193,975.0 86.60254037844386,1000.0 129.9038105676658,975.0 129.9038105676658,925.0 86.60254037844386,900.0 43.30127018922193,925.0" stroke="black" stroke-width="2" /><polygon fill="rgb(1,177,185)" id="hex1" points="86.60254037844386,1050.0 129.9038105676658,1075.0 173.20508075688772,1050.0 173.20508075688772,1000.0 129.9038105676658,975.0 86.60254037844386,1000.0" stroke="black" stroke-width="2" /><polygon fill="rgb(1,177,185)" id="hex1" points="43.30127018922193,1125.0 86.60254037844386,1150.0 129.9038105676658,1125.0 129.9038105676658,1075.0 86.60254037844386,1050.0 43.30127018922193,1075.0" stroke="black" stroke-width="2" /><polygon fill="rgb(1,177,185)" id="hex0" points="173.20508075688772,0.0 216.50635094610965,25.0 259.8076211353316,0.0 259.8076211353316,-50.0 216.50635094610965,-75.0 173.20508075688772,-50.0" stroke="black" stroke-width="2" /><polygon fill="rgb(1,177,185)" id="hex0" points="129.9038105676658,75.0 173.20508075688772,100.0 216.50635094610965,75.0 216.50635094610965,25.0 173.20508075688772,0.0 129.9038105676658,25.0" stroke="black" stroke-width="2" /><polygon fill="rgb(1,177,185)" id="hex0" points="173.20508075688772,150.0 216.50635094610965,175.0 259.8076211353316,150.0 259.8076211353316,100.0 216.50635094610965,75.0 173.20508075688772,100.0" stroke="black" stroke-width="2" /><polygon fill="rgb(1,177,185)" id="hex0" points="129.9038105676658,225.0 173.20508075688772,250.0 216.50635094610965,225.0 216.50635094610965,175.0 173.20508075688772,150.0 129.9038105676658,175.0" stroke="black" stroke-width="2" /><polygon fill="rgb(1,177,185)" id="hex0" points="173.20508075688772,300.0 216.50635094610965,325.0 259.8076211353316,300.0 259.8076211353316,250.0 216.50635094610965,225.0 173.20508075688772,250.0" stroke="black" stroke-width="2" /><polygon fill="rgb(1,177,185)" id="hex0" points="129.9038105676658,375.0 173.20508075688772,400.0 216.50635094610965,375.0 216.50635094610965,325.0 173.20508075688772,300.0 129.9038105676658,325.0" stroke="black" stroke-width="2" /><polygon fill="rgb(1,177,185)" id="hex0" points="173.20508075688772,450.0 216.50635094610965,475.0 259.8076211353316,450.0 259.8076211353316,400.0 216.50635094610965,375.0 173.20508075688772,400.0" stroke="black" stroke-width="2" /><polygon fill="rgb(1,177,185)" id="hex0" points="129.9038105676658,525.0 173.20508075688772,550.0 216.50635094610965,525.0 216.50635094610965,475.0 173.20508075688772,450.0 129.9038105676658,475.0" stroke="black" stroke-width="2" /><polygon fill="rgb(1,177,185)" id="hex0" points="173.20508075688772,600.0 216.50635094610965,625.0 259.8076211353316,600.0 259.8076211353316,550.0 216.50635094610965,525.0 173.20508075688772,550.0" stroke="black" stroke-width="2" /><polygon fill="rgb(1,177,185)" id="hex0" points="129.9038105676658,675.0 173.20508075688772,700.0 216.50635094610965,675.0 216.50635094610965,625.0 173.20508075688772,600.0 129.9038105676658,625.0" stroke="black" stroke-width="2" /><polygon fill="rgb(1,177,185)" id="hex0" points="173.20508075688772,750.0 216.50635094610965,775.0 259.8076211353316,750.0 259.8076211353316,700.0 216.50635094610965,675.0 173.20508075688772,700.0" stroke="black" stroke-width="2" /><polygon fill="rgb(1,177,185)" id="hex0" points="129.9038105676658,825.0 173.20508075688772,850.0 216.50635094610965,825.0 216.50635094610965,775.0 173.20508075688772,750.0 129.9038105676658,775.0" stroke="black" stroke-width="2" /><polygon fill="rgb(1,177,185)" id="hex0" points="173.20508075688772,900.0 216.50635094610965,925.0 259.8076211353316,900.0 259.8076211353316,850.0 216.50635094610965,825.0 173.20508075688772,850.0" stroke="black" stroke-width="2" /><polygon fill="rgb(1,177,185)" id="hex0" points="129.9038105676658,975.0 173.20508075688772,1000.0 216.50635094610965,975.0 216.50635094610965,925.0 173.20508075688772,900.0 129.9038105676658,925.0" stroke="black" stroke-width="2" /><polygon fill="rgb(1,177,185)" id="hex0" points="173.20508075688772,1050.0 216.50635094610965,1075.0 259.8076211353316,1050.0 259.8076211353316,1000.0 216.50635094610965,975.0 173.20508075688772,1000.0" stroke="black" stroke-width="2" /><polygon fill="rgb(1,177,185)" id="hex0" points="129.9038105676658,1125.0 173.20508075688772,1150.0 216.50635094610965,1125.0 216.50635094610965,1075.0 173.20508075688772,1050.0 129.9038105676658,1075.0" stroke="black" stroke-width="2" /><polygon fill="rgb(1,177,185)" id="hex1" points="259.8076211353316,0.0 303.10889132455355,25.0 346.41016151377545,0.0 346.41016151377545,-50.0 303.10889132455355,-75.0 259.8076211353316,-50.0" stroke="black" stroke-width="2" /><polygon fill="rgb(1,177,185)" id="hex1" points="216.50635094610965,75.0 259.8076211353316,100.0 303.1088913245535,75.0 303.1088913245535,25.0 259.8076211353316,0.0 216.50635094610965,25.0" stroke="black" stroke-width="2" /><polygon fill="rgb(1,177,185)" id="hex1" points="259.8076211353316,150.0 303.10889132455355,175.0 346.41016151377545,150.0 346.41016151377545,100.0 303.10889132455355,75.0 259.8076211353316,100.0" stroke="black" stroke-width="2" /><polygon fill="rgb(1,177,185)" id="hex1" points="216.50635094610965,225.0 259.8076211353316,250.0 303.1088913245535,225.0 303.1088913245535,175.0 259.8076211353316,150.0 216.50635094610965,175.0" stroke="black" stroke-width="2" /><polygon fill="rgb(1,177,185)" id="hex1" points="259.8076211353316,300.0 303.10889132455355,325.0 346.41016151377545,300.0 346.41016151377545,250.0 303.10889132455355,225.0 259.8076211353316,250.0" stroke="black" stroke-width="2" /><polygon fill="rgb(1,177,185)" id="hex1" points="216.50635094610965,375.0 259.8076211353316,400.0 303.1088913245535,375.0 303.1088913245535,325.0 259.8076211353316,300.0 216.50635094610965,325.0" stroke="black" stroke-width="2" /><polygon fill="rgb(1,177,185)" id="hex1" points="259.8076211353316,450.0 303.10889132455355,475.0 346.41016151377545,450.0 346.41016151377545,400.0 303.10889132455355,375.0 259.8076211353316,400.0" stroke="black" stroke-width="2" /><polygon fill="rgb(1,177,185)" id="hex1" points="216.50635094610965,525.0 259.8076211353316,550.0 303.1088913245535,525.0 303.1088913245535,475.0 259.8076211353316,450.0 216.50635094610965,475.0" stroke="black" stroke-width="2" /><polygon fill="rgb(1,177,185)" id="hex1" points="259.8076211353316,600.0 303.10889132455355,625.0 346.41016151377545,600.0 346.41016151377545,550.0 303.10889132455355,525.0 259.8076211353316,550.0" stroke="black" stroke-width="2" /><polygon fill="rgb(1,177,185)" id="hex1" points="216.50635094610965,675.0 259.8076211353316,700.0 303.1088913245535,675.0 303.1088913245535,625.0 259.8076211353316,600.0 216.50635094610965,625.0" stroke="black" stroke-width="2" /><polygon fill="rgb(1,177,185)" id="hex1" points="259.8076211353316,750.0 303.10889132455355,775.0 346.41016151377545,750.0 346.41016151377545,700.0 303.10889132455355,675.0 259.8076211353316,700.0" stroke="black" stroke-width="2" /><polygon fill="rgb(1,177,185)" id="hex1" points="216.50635094610965,825.0 259.8076211353316,850.0 303.1088913245535,825.0 303.1088913245535,775.0 259.8076211353316,750.0 216.50635094610965,775.0" stroke="black" stroke-width="2" /><polygon fill="rgb(1,177,185)" id="hex1" points="259.8076211353316,900.0 303.10889132455355,925.0 346.41016151377545,900.0 346.41016151377545,850.0 303.10889132455355,825.0 259.8076211353316,850.0" stroke="black" stroke-width="2" /><polygon fill="rgb(1,177,185)" id="hex1" points="216.50635094610965,975.0 259.8076211353316,1000.0 303.1088913245535,975.0 303.1088913245535,925.0 259.8076211353316,900.0 216.50635094610965,925.0" stroke="black" stroke-width="2" /><polygon fill="rgb(1,177,185)" id="hex1" points="259.8076211353316,1050.0 303.10889132455355,1075.0 346.41016151377545,1050.0 346.41016151377545,1000.0 303.10889132455355,975.0 259.8076211353316,1000.0" stroke="black" stroke-width="2" /><polygon fill="rgb(1,177,185)" id="hex1" points="216.50635094610965,1125.0 259.8076211353316,1150.0 303.1088913245535,1125.0 303.1088913245535,1075.0 259.8076211353316,1050.0 216.50635094610965,1075.0" stroke="black" stroke-width="2" /><polygon fill="rgb(1,177,185)" id="hex0" points="346.41016151377545,0.0 389.7114317029974,25.0 433.0127018922193,0.0 433.0127018922193,-50.0 389.7114317029974,-75.0 346.41016151377545,-50.0" stroke="black" stroke-width="2" /><polygon fill="rgb(1,177,185)" id="hex0" points="303.1088913245535,75.0 346.41016151377545,100.0 389.71143170299734,75.0 389.71143170299734,25.0 346.41016151377545,0.0 303.1088913245535,25.0" stroke="black" stroke-width="2" /><polygon fill="rgb(1,177,185)" id="hex0" points="346.41016151377545,150.0 389.7114317029974,175.0 433.0127018922193,150.0 433.0127018922193,100.0 389.7114317029974,75.0 346.41016151377545,100.0" stroke="black" stroke-width="2" /><polygon fill="rgb(1,177,185)" id="hex0" points="303.1088913245535,225.0 346.41016151377545,250.0 389.71143170299734,225.0 389.71143170299734,175.0 346.41016151377545,150.0 303.1088913245535,175.0" stroke="black" stroke-width="2" /><polygon fill="rgb(1,177,185)" id="hex0" points="346.41016151377545,300.0 389.7114317029974,325.0 433.0127018922193,300.0 433.0127018922193,250.0 389.7114317029974,225.0 346.41016151377545,250.0" stroke="black" stroke-width="2" /><polygon fill="rgb(1,177,185)" id="hex0" points="303.1088913245535,375.0 346.41016151377545,400.0 389.71143170299734,375.0 389.71143170299734,325.0 346.41016151377545,300.0 303.1088913245535,325.0" stroke="black" stroke-width="2" /><polygon fill="rgb(1,177,185)" id="hex0" points="346.41016151377545,450.0 389.7114317029974,475.0 433.0127018922193,450.0 433.0127018922193,400.0 389.7114317029974,375.0 346.41016151377545,400.0" stroke="black" stroke-width="2" /><polygon fill="rgb(1,177,185)" id="hex0" points="303.1088913245535,525.0 346.41016151377545,550.0 389.71143170299734,525.0 389.71143170299734,475.0 346.41016151377545,450.0 303.1088913245535,475.0" stroke="black" stroke-width="2" /><polygon fill="rgb(1,177,185)" id="hex0" points="346.41016151377545,600.0 389.7114317029974,625.0 433.0127018922193,600.0 433.0127018922193,550.0 389.7114317029974,525.0 346.41016151377545,550.0" stroke="black" stroke-width="2" /><polygon fill="rgb(1,177,185)" id="hex0" points="303.1088913245535,675.0 346.41016151377545,700.0 389.71143170299734,675.0 389.71143170299734,625.0 346.41016151377545,600.0 303.1088913245535,625.0" stroke="black" stroke-width="2" /><polygon fill="rgb(1,177,185)" id="hex0" points="346.41016151377545,750.0 389.7114317029974,775.0 433.0127018922193,750.0 433.0127018922193,700.0 389.7114317029974,675.0 346.41016151377545,700.0" stroke="black" stroke-width="2" /><polygon fill="rgb(1,177,185)" id="hex0" points="303.1088913245535,825.0 346.41016151377545,850.0 389.71143170299734,825.0 389.71143170299734,775.0 346.41016151377545,750.0 303.1088913245535,775.0" stroke="black" stroke-width="2" /><polygon fill="rgb(1,177,185)" id="hex0" points="346.41016151377545,900.0 389.7114317029974,925.0 433.0127018922193,900.0 433.0127018922193,850.0 389.7114317029974,825.0 346.41016151377545,850.0" stroke="black" stroke-width="2" /><polygon fill="rgb(1,177,185)" id="hex0" points="303.1088913245535,975.0 346.41016151377545,1000.0 389.71143170299734,975.0 389.71143170299734,925.0 346.41016151377545,900.0 303.1088913245535,925.0" stroke="black" stroke-width="2" /><polygon fill="rgb(1,177,185)" id="hex0" points="346.41016151377545,1050.0 389.7114317029974,1075.0 433.0127018922193,1050.0 433.0127018922193,1000.0 389.7114317029974,975.0 346.41016151377545,1000.0" stroke="black" stroke-width="2" /><polygon fill="rgb(1,177,185)" id="hex0" points="303.1088913245535,1125.0 346.41016151377545,1150.0 389.71143170299734,1125.0 389.71143170299734,1075.0 346.41016151377545,1050.0 303.1088913245535,1075.0" stroke="black" stroke-width="2" /><polygon fill="rgb(1,177,185)" id="hex1" points="433.0127018922193,0.0 476.31397208144125,25.0 519.6152422706632,0.0 519.6152422706632,-50.0 476.31397208144125,-75.0 433.0127018922193,-50.0" stroke="black" stroke-width="2" /><polygon fill="rgb(1,177,185)" id="hex1" points="389.71143170299734,75.0 433.0127018922193,100.0 476.3139720814412,75.0 476.3139720814412,25.0 433.0127018922193,0.0 389.71143170299734,25.0" stroke="black" stroke-width="2" /><polygon fill="rgb(1,177,185)" id="hex1" points="433.0127018922193,150.0 476.31397208144125,175.0 519.6152422706632,150.0 519.6152422706632,100.0 476.31397208144125,75.0 433.0127018922193,100.0" stroke="black" stroke-width="2" /><polygon fill="rgb(1,177,185)" id="hex1" points="389.71143170299734,225.0 433.0127018922193,250.0 476.3139720814412,225.0 476.3139720814412,175.0 433.0127018922193,150.0 389.71143170299734,175.0" stroke="black" stroke-width="2" /><polygon fill="rgb(1,177,185)" id="hex1" points="433.0127018922193,300.0 476.31397208144125,325.0 519.6152422706632,300.0 519.6152422706632,250.0 476.31397208144125,225.0 433.0127018922193,250.0" stroke="black" stroke-width="2" /><polygon fill="rgb(1,177,185)" id="hex1" points="389.71143170299734,375.0 433.0127018922193,400.0 476.3139720814412,375.0 476.3139720814412,325.0 433.0127018922193,300.0 389.71143170299734,325.0" stroke="black" stroke-width="2" /><polygon fill="rgb(1,177,185)" id="hex1" points="433.0127018922193,450.0 476.31397208144125,475.0 519.6152422706632,450.0 519.6152422706632,400.0 476.31397208144125,375.0 433.0127018922193,400.0" stroke="black" stroke-width="2" /><polygon fill="rgb(1,177,185)" id="hex1" points="389.71143170299734,525.0 433.0127018922193,550.0 476.3139720814412,525.0 476.3139720814412,475.0 433.0127018922193,450.0 389.71143170299734,475.0" stroke="black" stroke-width="2" /><polygon fill="rgb(1,177,185)" id="hex1" points="433.0127018922193,600.0 476.31397208144125,625.0 519.6152422706632,600.0 519.6152422706632,550.0 476.31397208144125,525.0 433.0127018922193,550.0" stroke="black" stroke-width="2" /><polygon fill="rgb(1,177,185)" id="hex1" points="389.71143170299734,675.0 433.0127018922193,700.0 476.3139720814412,675.0 476.3139720814412,625.0 433.0127018922193,600.0 389.71143170299734,625.0" stroke="black" stroke-width="2" /><polygon fill="rgb(1,177,185)" id="hex1" points="433.0127018922193,750.0 476.31397208144125,775.0 519.6152422706632,750.0 519.6152422706632,700.0 476.31397208144125,675.0 433.0127018922193,700.0" stroke="black" stroke-width="2" /><polygon fill="rgb(1,177,185)" id="hex1" points="389.71143170299734,825.0 433.0127018922193,850.0 476.3139720814412,825.0 476.3139720814412,775.0 433.0127018922193,750.0 389.71143170299734,775.0" stroke="black" stroke-width="2" /><polygon fill="rgb(1,177,185)" id="hex1" points="433.0127018922193,900.0 476.31397208144125,925.0 519.6152422706632,900.0 519.6152422706632,850.0 476.31397208144125,825.0 433.0127018922193,850.0" stroke="black" stroke-width="2" /><polygon fill="rgb(1,177,185)" id="hex1" points="389.71143170299734,975.0 433.0127018922193,1000.0 476.3139720814412,975.0 476.3139720814412,925.0 433.0127018922193,900.0 389.71143170299734,925.0" stroke="black" stroke-width="2" /><polygon fill="rgb(1,177,185)" id="hex1" points="433.0127018922193,1050.0 476.31397208144125,1075.0 519.6152422706632,1050.0 519.6152422706632,1000.0 476.31397208144125,975.0 433.0127018922193,1000.0" stroke="black" stroke-width="2" /><polygon fill="rgb(1,177,185)" id="hex1" points="389.71143170299734,1125.0 433.0127018922193,1150.0 476.3139720814412,1125.0 476.3139720814412,1075.0 433.0127018922193,1050.0 389.71143170299734,1075.0" stroke="black" stroke-width="2" /><polygon fill="rgb(1,177,185)" id="hex0" points="519.6152422706632,0.0 562.9165124598851,25.0 606.2177826491071,0.0 606.2177826491071,-50.0 562.9165124598851,-75.0 519.6152422706632,-50.0" stroke="black" stroke-width="2" /><polygon fill="rgb(1,177,185)" id="hex0" points="476.31397208144125,75.0 519.6152422706632,100.0 562.9165124598851,75.0 562.9165124598851,25.0 519.6152422706632,0.0 476.31397208144125,25.0" stroke="black" stroke-width="2" /><polygon fill="rgb(1,177,185)" id="hex0" points="519.6152422706632,150.0 562.9165124598851,175.0 606.2177826491071,150.0 606.2177826491071,100.0 562.9165124598851,75.0 519.6152422706632,100.0" stroke="black" stroke-width="2" /><polygon fill="rgb(1,177,185)" id="hex0" points="476.31397208144125,225.0 519.6152422706632,250.0 562.9165124598851,225.0 562.9165124598851,175.0 519.6152422706632,150.0 476.31397208144125,175.0" stroke="black" stroke-width="2" /><polygon fill="rgb(1,177,185)" id="hex0" points="519.6152422706632,300.0 562.9165124598851,325.0 606.2177826491071,300.0 606.2177826491071,250.0 562.9165124598851,225.0 519.6152422706632,250.0" stroke="black" stroke-width="2" /><polygon fill="rgb(1,177,185)" id="hex0" points="476.31397208144125,375.0 519.6152422706632,400.0 562.9165124598851,375.0 562.9165124598851,325.0 519.6152422706632,300.0 476.31397208144125,325.0" stroke="black" stroke-width="2" /><polygon fill="rgb(1,177,185)" id="hex0" points="519.6152422706632,450.0 562.9165124598851,475.0 606.2177826491071,450.0 606.2177826491071,400.0 562.9165124598851,375.0 519.6152422706632,400.0" stroke="black" stroke-width="2" /><polygon fill="rgb(1,177,185)" id="hex0" points="476.31397208144125,525.0 519.6152422706632,550.0 562.9165124598851,525.0 562.9165124598851,475.0 519.6152422706632,450.0 476.31397208144125,475.0" stroke="black" stroke-width="2" /><polygon fill="rgb(1,177,185)" id="hex0" points="519.6152422706632,600.0 562.9165124598851,625.0 606.2177826491071,600.0 606.2177826491071,550.0 562.9165124598851,525.0 519.6152422706632,550.0" stroke="black" stroke-width="2" /><polygon fill="rgb(1,177,185)" id="hex0" points="476.31397208144125,675.0 519.6152422706632,700.0 562.9165124598851,675.0 562.9165124598851,625.0 519.6152422706632,600.0 476.31397208144125,625.0" stroke="black" stroke-width="2" /><polygon fill="rgb(1,177,185)" id="hex0" points="519.6152422706632,750.0 562.9165124598851,775.0 606.2177826491071,750.0 606.2177826491071,700.0 562.9165124598851,675.0 519.6152422706632,700.0" stroke="black" stroke-width="2" /><polygon fill="rgb(1,177,185)" id="hex0" points="476.31397208144125,825.0 519.6152422706632,850.0 562.9165124598851,825.0 562.9165124598851,775.0 519.6152422706632,750.0 476.31397208144125,775.0" stroke="black" stroke-width="2" /><polygon fill="rgb(1,177,185)" id="hex0" points="519.6152422706632,900.0 562.9165124598851,925.0 606.2177826491071,900.0 606.2177826491071,850.0 562.9165124598851,825.0 519.6152422706632,850.0" stroke="black" stroke-width="2" /><polygon fill="rgb(1,177,185)" id="hex0" points="476.31397208144125,975.0 519.6152422706632,1000.0 562.9165124598851,975.0 562.9165124598851,925.0 519.6152422706632,900.0 476.31397208144125,925.0" stroke="black" stroke-width="2" /><polygon fill="rgb(1,177,185)" id="hex0" points="519.6152422706632,1050.0 562.9165124598851,1075.0 606.2177826491071,1050.0 606.2177826491071,1000.0 562.9165124598851,975.0 519.6152422706632,1000.0" stroke="black" stroke-width="2" /><polygon fill="rgb(1,177,185)" id="hex0" points="476.31397208144125,1125.0 519.6152422706632,1150.0 562.9165124598851,1125.0 562.9165124598851,1075.0 519.6152422706632,1050.0 476.31397208144125,1075.0" stroke="black" stroke-width="2" /><polygon fill="rgb(1,177,185)" id="hex1" points="606.217782649107,0.0 649.5190528383289,25.0 692.8203230275509,0.0 692.8203230275509,-50.0 649.5190528383289,-75.0 606.217782649107,-50.0" stroke="black" stroke-width="2" /><polygon fill="rgb(1,177,185)" id="hex1" points="562.9165124598851,75.0 606.217782649107,100.0 649.519052838329,75.0 649.519052838329,25.0 606.217782649107,0.0 562.9165124598851,25.0" stroke="black" stroke-width="2" /><polygon fill="rgb(1,177,185)" id="hex1" points="606.217782649107,150.0 649.5190528383289,175.0 692.8203230275509,150.0 692.8203230275509,100.0 649.5190528383289,75.0 606.217782649107,100.0" stroke="black" stroke-width="2" /><polygon fill="rgb(1,177,185)" id="hex1" points="562.9165124598851,225.0 606.217782649107,250.0 649.519052838329,225.0 649.519052838329,175.0 606.217782649107,150.0 562.9165124598851,175.0" stroke="black" stroke-width="2" /><polygon fill="rgb(1,177,185)" id="hex1" points="606.217782649107,300.0 649.5190528383289,325.0 692.8203230275509,300.0 692.8203230275509,250.0 649.5190528383289,225.0 606.217782649107,250.0" stroke="black" stroke-width="2" /><polygon fill="rgb(1,177,185)" id="hex1" points="562.9165124598851,375.0 606.217782649107,400.0 649.519052838329,375.0 649.519052838329,325.0 606.217782649107,300.0 562.9165124598851,325.0" stroke="black" stroke-width="2" /><polygon fill="rgb(1,177,185)" id="hex1" points="606.217782649107,450.0 649.5190528383289,475.0 692.8203230275509,450.0 692.8203230275509,400.0 649.5190528383289,375.0 606.217782649107,400.0" stroke="black" stroke-width="2" /><polygon fill="rgb(1,177,185)" id="hex1" points="562.9165124598851,525.0 606.217782649107,550.0 649.519052838329,525.0 649.519052838329,475.0 606.217782649107,450.0 562.9165124598851,475.0" stroke="black" stroke-width="2" /><polygon fill="rgb(1,177,185)" id="hex1" points="606.217782649107,600.0 649.5190528383289,625.0 692.8203230275509,600.0 692.8203230275509,550.0 649.5190528383289,525.0 606.217782649107,550.0" stroke="black" stroke-width="2" /><polygon fill="rgb(1,177,185)" id="hex1" points="562.9165124598851,675.0 606.217782649107,700.0 649.519052838329,675.0 649.519052838329,625.0 606.217782649107,600.0 562.9165124598851,625.0" stroke="black" stroke-width="2" /><polygon fill="rgb(1,177,185)" id="hex1" points="606.217782649107,750.0 649.5190528383289,775.0 692.8203230275509,750.0 692.8203230275509,700.0 649.5190528383289,675.0 606.217782649107,700.0" stroke="black" stroke-width="2" /><polygon fill="rgb(1,177,185)" id="hex1" points="562.9165124598851,825.0 606.217782649107,850.0 649.519052838329,825.0 649.519052838329,775.0 606.217782649107,750.0 562.9165124598851,775.0" stroke="black" stroke-width="2" /><polygon fill="rgb(1,177,185)" id="hex1" points="606.217782649107,900.0 649.5190528383289,925.0 692.8203230275509,900.0 692.8203230275509,850.0 649.5190528383289,825.0 606.217782649107,850.0" stroke="black" stroke-width="2" /><polygon fill="rgb(1,177,185)" id="hex1" points="562.9165124598851,975.0 606.217782649107,1000.0 649.519052838329,975.0 649.519052838329,925.0 606.217782649107,900.0 562.9165124598851,925.0" stroke="black" stroke-width="2" /><polygon fill="rgb(1,177,185)" id="hex1" points="606.217782649107,1050.0 649.5190528383289,1075.0 692.8203230275509,1050.0 692.8203230275509,1000.0 649.5190528383289,975.0 606.217782649107,1000.0" stroke="black" stroke-width="2" /><polygon fill="rgb(1,177,185)" id="hex1" points="562.9165124598851,1125.0 606.217782649107,1150.0 649.519052838329,1125.0 649.519052838329,1075.0 606.217782649107,1050.0 562.9165124598851,1075.0" stroke="black" stroke-width="2" /><polygon fill="rgb(1,177,185)" id="hex0" points="692.8203230275509,0.0 736.1215932167728,25.0 779.4228634059948,0.0 779.4228634059948,-50.0 736.1215932167728,-75.0 692.8203230275509,-50.0" stroke="black" stroke-width="2" /><polygon fill="rgb(1,177,185)" id="hex0" points="649.519052838329,75.0 692.8203230275509,100.0 736.1215932167729,75.0 736.1215932167729,25.0 692.8203230275509,0.0 649.519052838329,25.0" stroke="black" stroke-width="2" /><polygon fill="rgb(1,177,185)" id="hex0" points="692.8203230275509,150.0 736.1215932167728,175.0 779.4228634059948,150.0 779.4228634059948,100.0 736.1215932167728,75.0 692.8203230275509,100.0" stroke="black" stroke-width="2" /><polygon fill="rgb(1,177,185)" id="hex0" points="649.519052838329,225.0 692.8203230275509,250.0 736.1215932167729,225.0 736.1215932167729,175.0 692.8203230275509,150.0 649.519052838329,175.0" stroke="black" stroke-width="2" /><polygon fill="rgb(1,177,185)" id="hex0" points="692.8203230275509,300.0 736.1215932167728,325.0 779.4228634059948,300.0 779.4228634059948,250.0 736.1215932167728,225.0 692.8203230275509,250.0" stroke="black" stroke-width="2" /><polygon fill="rgb(1,177,185)" id="hex0" points="649.519052838329,375.0 692.8203230275509,400.0 736.1215932167729,375.0 736.1215932167729,325.0 692.8203230275509,300.0 649.519052838329,325.0" stroke="black" stroke-width="2" /><polygon fill="rgb(1,177,185)" id="hex0" points="692.8203230275509,450.0 736.1215932167728,475.0 779.4228634059948,450.0 779.4228634059948,400.0 736.1215932167728,375.0 692.8203230275509,400.0" stroke="black" stroke-width="2" /><polygon fill="rgb(1,177,185)" id="hex0" points="649.519052838329,525.0 692.8203230275509,550.0 736.1215932167729,525.0 736.1215932167729,475.0 692.8203230275509,450.0 649.519052838329,475.0" stroke="black" stroke-width="2" /><polygon fill="rgb(1,177,185)" id="hex0" points="692.8203230275509,600.0 736.1215932167728,625.0 779.4228634059948,600.0 779.4228634059948,550.0 736.1215932167728,525.0 692.8203230275509,550.0" stroke="black" stroke-width="2" /><polygon fill="rgb(1,177,185)" id="hex0" points="649.519052838329,675.0 692.8203230275509,700.0 736.1215932167729,675.0 736.1215932167729,625.0 692.8203230275509,600.0 649.519052838329,625.0" stroke="black" stroke-width="2" /><polygon fill="rgb(1,177,185)" id="hex0" points="692.8203230275509,750.0 736.1215932167728,775.0 779.4228634059948,750.0 779.4228634059948,700.0 736.1215932167728,675.0 692.8203230275509,700.0" stroke="black" stroke-width="2" /><polygon fill="rgb(1,177,185)" id="hex0" points="649.519052838329,825.0 692.8203230275509,850.0 736.1215932167729,825.0 736.1215932167729,775.0 692.8203230275509,750.0 649.519052838329,775.0" stroke="black" stroke-width="2" /><polygon fill="rgb(1,177,185)" id="hex0" points="692.8203230275509,900.0 736.1215932167728,925.0 779.4228634059948,900.0 779.4228634059948,850.0 736.1215932167728,825.0 692.8203230275509,850.0" stroke="black" stroke-width="2" /><polygon fill="rgb(1,177,185)" id="hex0" points="649.519052838329,975.0 692.8203230275509,1000.0 736.1215932167729,975.0 736.1215932167729,925.0 692.8203230275509,900.0 649.519052838329,925.0" stroke="black" stroke-width="2" /><polygon fill="rgb(1,177,185)" id="hex0" points="692.8203230275509,1050.0 736.1215932167728,1075.0 779.4228634059948,1050.0 779.4228634059948,1000.0 736.1215932167728,975.0 692.8203230275509,1000.0" stroke="black" stroke-width="2" /><polygon fill="rgb(1,177,185)" id="hex0" points="649.519052838329,1125.0 692.8203230275509,1150.0 736.1215932167729,1125.0 736.1215932167729,1075.0 692.8203230275509,1050.0 649.519052838329,1075.0" stroke="black" stroke-width="2" /><polygon fill="rgb(1,177,185)" id="hex1" points="779.4228634059947,0.0 822.7241335952166,25.0 866.0254037844386,0.0 866.0254037844386,-50.0 822.7241335952166,-75.0 779.4228634059947,-50.0" stroke="black" stroke-width="2" /><polygon fill="rgb(1,177,185)" id="hex1" points="736.1215932167728,75.0 779.4228634059947,100.0 822.7241335952167,75.0 822.7241335952167,25.0 779.4228634059947,0.0 736.1215932167728,25.0" stroke="black" stroke-width="2" /><polygon fill="rgb(1,177,185)" id="hex1" points="779.4228634059947,150.0 822.7241335952166,175.0 866.0254037844386,150.0 866.0254037844386,100.0 822.7241335952166,75.0 779.4228634059947,100.0" stroke="black" stroke-width="2" /><polygon fill="rgb(1,177,185)" id="hex1" points="736.1215932167728,225.0 779.4228634059947,250.0 822.7241335952167,225.0 822.7241335952167,175.0 779.4228634059947,150.0 736.1215932167728,175.0" stroke="black" stroke-width="2" /><polygon fill="rgb(1,177,185)" id="hex1" points="779.4228634059947,300.0 822.7241335952166,325.0 866.0254037844386,300.0 866.0254037844386,250.0 822.7241335952166,225.0 779.4228634059947,250.0" stroke="black" stroke-width="2" /><polygon fill="rgb(1,177,185)" id="hex1" points="736.1215932167728,375.0 779.4228634059947,400.0 822.7241335952167,375.0 822.7241335952167,325.0 779.4228634059947,300.0 736.1215932167728,325.0" stroke="black" stroke-width="2" /><polygon fill="rgb(1,177,185)" id="hex1" points="779.4228634059947,450.0 822.7241335952166,475.0 866.0254037844386,450.0 866.0254037844386,400.0 822.7241335952166,375.0 779.4228634059947,400.0" stroke="black" stroke-width="2" /><polygon fill="rgb(1,177,185)" id="hex1" points="736.1215932167728,525.0 779.4228634059947,550.0 822.7241335952167,525.0 822.7241335952167,475.0 779.4228634059947,450.0 736.1215932167728,475.0" stroke="black" stroke-width="2" /><polygon fill="rgb(1,177,185)" id="hex1" points="779.4228634059947,600.0 822.7241335952166,625.0 866.0254037844386,600.0 866.0254037844386,550.0 822.7241335952166,525.0 779.4228634059947,550.0" stroke="black" stroke-width="2" /><polygon fill="rgb(1,177,185)" id="hex1" points="736.1215932167728,675.0 779.4228634059947,700.0 822.7241335952167,675.0 822.7241335952167,625.0 779.4228634059947,600.0 736.1215932167728,625.0" stroke="black" stroke-width="2" /><polygon fill="rgb(1,177,185)" id="hex1" points="779.4228634059947,750.0 822.7241335952166,775.0 866.0254037844386,750.0 866.0254037844386,700.0 822.7241335952166,675.0 779.4228634059947,700.0" stroke="black" stroke-width="2" /><polygon fill="rgb(1,177,185)" id="hex1" points="736.1215932167728,825.0 779.4228634059947,850.0 822.7241335952167,825.0 822.7241335952167,775.0 779.4228634059947,750.0 736.1215932167728,775.0" stroke="black" stroke-width="2" /><polygon fill="rgb(1,177,185)" id="hex1" points="779.4228634059947,900.0 822.7241335952166,925.0 866.0254037844386,900.0 866.0254037844386,850.0 822.7241335952166,825.0 779.4228634059947,850.0" stroke="black" stroke-width="2" /><polygon fill="rgb(1,177,185)" id="hex1" points="736.1215932167728,975.0 779.4228634059947,1000.0 822.7241335952167,975.0 822.7241335952167,925.0 779.4228634059947,900.0 736.1215932167728,925.0" stroke="black" stroke-width="2" /><polygon fill="rgb(1,177,185)" id="hex1" points="779.4228634059947,1050.0 822.7241335952166,1075.0 866.0254037844386,1050.0 866.0254037844386,1000.0 822.7241335952166,975.0 779.4228634059947,1000.0" stroke="black" stroke-width="2" /><polygon fill="rgb(1,177,185)" id="hex1" points="736.1215932167728,1125.0 779.4228634059947,1150.0 822.7241335952167,1125.0 822.7241335952167,1075.0 779.4228634059947,1050.0 736.1215932167728,1075.0" stroke="black" stroke-width="2" /><polygon fill="rgb(1,177,185)" id="hex0" points="866.0254037844386,0.0 909.3266739736605,25.0 952.6279441628825,0.0 952.6279441628825,-50.0 909.3266739736605,-75.0 866.0254037844386,-50.0" stroke="black" stroke-width="2" /><polygon fill="rgb(1,177,185)" id="hex0" points="822.7241335952167,75.0 866.0254037844386,100.0 909.3266739736606,75.0 909.3266739736606,25.0 866.0254037844386,0.0 822.7241335952167,25.0" stroke="black" stroke-width="2" /><polygon fill="rgb(1,177,185)" id="hex0" points="866.0254037844386,150.0 909.3266739736605,175.0 952.6279441628825,150.0 952.6279441628825,100.0 909.3266739736605,75.0 866.0254037844386,100.0" stroke="black" stroke-width="2" /><polygon fill="rgb(1,177,185)" id="hex0" points="822.7241335952167,225.0 866.0254037844386,250.0 909.3266739736606,225.0 909.3266739736606,175.0 866.0254037844386,150.0 822.7241335952167,175.0" stroke="black" stroke-width="2" /><polygon fill="rgb(1,177,185)" id="hex0" points="866.0254037844386,300.0 909.3266739736605,325.0 952.6279441628825,300.0 952.6279441628825,250.0 909.3266739736605,225.0 866.0254037844386,250.0" stroke="black" stroke-width="2" /><polygon fill="rgb(1,177,185)" id="hex0" points="822.7241335952167,375.0 866.0254037844386,400.0 909.3266739736606,375.0 909.3266739736606,325.0 866.0254037844386,300.0 822.7241335952167,325.0" stroke="black" stroke-width="2" /><polygon fill="rgb(1,177,185)" id="hex0" points="866.0254037844386,450.0 909.3266739736605,475.0 952.6279441628825,450.0 952.6279441628825,400.0 909.3266739736605,375.0 866.0254037844386,400.0" stroke="black" stroke-width="2" /><polygon fill="rgb(1,177,185)" id="hex0" points="822.7241335952167,525.0 866.0254037844386,550.0 909.3266739736606,525.0 909.3266739736606,475.0 866.0254037844386,450.0 822.7241335952167,475.0" stroke="black" stroke-width="2" /><polygon fill="rgb(1,177,185)" id="hex0" points="866.0254037844386,600.0 909.3266739736605,625.0 952.6279441628825,600.0 952.6279441628825,550.0 909.3266739736605,525.0 866.0254037844386,550.0" stroke="black" stroke-width="2" /><polygon fill="rgb(1,177,185)" id="hex0" points="822.7241335952167,675.0 866.0254037844386,700.0 909.3266739736606,675.0 909.3266739736606,625.0 866.0254037844386,600.0 822.7241335952167,625.0" stroke="black" stroke-width="2" /><polygon fill="rgb(1,177,185)" id="hex0" points="866.0254037844386,750.0 909.3266739736605,775.0 952.6279441628825,750.0 952.6279441628825,700.0 909.3266739736605,675.0 866.0254037844386,700.0" stroke="black" stroke-width="2" /><polygon fill="rgb(1,177,185)" id="hex0" points="822.7241335952167,825.0 866.0254037844386,850.0 909.3266739736606,825.0 909.3266739736606,775.0 866.0254037844386,750.0 822.7241335952167,775.0" stroke="black" stroke-width="2" /><polygon fill="rgb(1,177,185)" id="hex0" points="866.0254037844386,900.0 909.3266739736605,925.0 952.6279441628825,900.0 952.6279441628825,850.0 909.3266739736605,825.0 866.0254037844386,850.0" stroke="black" stroke-width="2" /><polygon fill="rgb(1,177,185)" id="hex0" points="822.7241335952167,975.0 866.0254037844386,1000.0 909.3266739736606,975.0 909.3266739736606,925.0 866.0254037844386,900.0 822.7241335952167,925.0" stroke="black" stroke-width="2" /><polygon fill="rgb(1,177,185)" id="hex0" points="866.0254037844386,1050.0 909.3266739736605,1075.0 952.6279441628825,1050.0 952.6279441628825,1000.0 909.3266739736605,975.0 866.0254037844386,1000.0" stroke="black" stroke-width="2" /><polygon fill="rgb(1,177,185)" id="hex0" points="822.7241335952167,1125.0 866.0254037844386,1150.0 909.3266739736606,1125.0 909.3266739736606,1075.0 866.0254037844386,1050.0 822.7241335952167,1075.0" stroke="black" stroke-width="2" /><polygon fill="rgb(1,177,185)" id="hex1" points="952.6279441628825,0.0 995.9292143521044,25.0 1039.2304845413264,0.0 1039.2304845413264,-50.0 995.9292143521044,-75.0 952.6279441628825,-50.0" stroke="black" stroke-width="2" /><polygon fill="rgb(1,177,185)" id="hex1" points="909.3266739736605,75.0 952.6279441628824,100.0 995.9292143521044,75.0 995.9292143521044,25.0 952.6279441628824,0.0 909.3266739736605,25.0" stroke="black" stroke-width="2" /><polygon fill="rgb(1,177,185)" id="hex1" points="952.6279441628825,150.0 995.9292143521044,175.0 1039.2304845413264,150.0 1039.2304845413264,100.0 995.9292143521044,75.0 952.6279441628825,100.0" stroke="black" stroke-width="2" /><polygon fill="rgb(1,177,185)" id="hex1" points="909.3266739736605,225.0 952.6279441628824,250.0 995.9292143521044,225.0 995.9292143521044,175.0 952.6279441628824,150.0 909.3266739736605,175.0" stroke="black" stroke-width="2" /><polygon fill="rgb(1,177,185)" id="hex1" points="952.6279441628825,300.0 995.9292143521044,325.0 1039.2304845413264,300.0 1039.2304845413264,250.0 995.9292143521044,225.0 952.6279441628825,250.0" stroke="black" stroke-width="2" /><polygon fill="rgb(1,177,185)" id="hex1" points="909.3266739736605,375.0 952.6279441628824,400.0 995.9292143521044,375.0 995.9292143521044,325.0 952.6279441628824,300.0 909.3266739736605,325.0" stroke="black" stroke-width="2" /><polygon fill="rgb(1,177,185)" id="hex1" points="952.6279441628825,450.0 995.9292143521044,475.0 1039.2304845413264,450.0 1039.2304845413264,400.0 995.9292143521044,375.0 952.6279441628825,400.0" stroke="black" stroke-width="2" /><polygon fill="rgb(1,177,185)" id="hex1" points="909.3266739736605,525.0 952.6279441628824,550.0 995.9292143521044,525.0 995.9292143521044,475.0 952.6279441628824,450.0 909.3266739736605,475.0" stroke="black" stroke-width="2" /><polygon fill="rgb(1,177,185)" id="hex1" points="952.6279441628825,600.0 995.9292143521044,625.0 1039.2304845413264,600.0 1039.2304845413264,550.0 995.9292143521044,525.0 952.6279441628825,550.0" stroke="black" stroke-width="2" /><polygon fill="rgb(1,177,185)" id="hex1" points="909.3266739736605,675.0 952.6279441628824,700.0 995.9292143521044,675.0 995.9292143521044,625.0 952.6279441628824,600.0 909.3266739736605,625.0" stroke="black" stroke-width="2" /><polygon fill="rgb(1,177,185)" id="hex1" points="952.6279441628825,750.0 995.9292143521044,775.0 1039.2304845413264,750.0 1039.2304845413264,700.0 995.9292143521044,675.0 952.6279441628825,700.0" stroke="black" stroke-width="2" /><polygon fill="rgb(1,177,185)" id="hex1" points="909.3266739736605,825.0 952.6279441628824,850.0 995.9292143521044,825.0 995.9292143521044,775.0 952.6279441628824,750.0 909.3266739736605,775.0" stroke="black" stroke-width="2" /><polygon fill="rgb(1,177,185)" id="hex1" points="952.6279441628825,900.0 995.9292143521044,925.0 1039.2304845413264,900.0 1039.2304845413264,850.0 995.9292143521044,825.0 952.6279441628825,850.0" stroke="black" stroke-width="2" /><polygon fill="rgb(1,177,185)" id="hex1" points="909.3266739736605,975.0 952.6279441628824,1000.0 995.9292143521044,975.0 995.9292143521044,925.0 952.6279441628824,900.0 909.3266739736605,925.0" stroke="black" stroke-width="2" /><polygon fill="rgb(1,177,185)" id="hex1" points="952.6279441628825,1050.0 995.9292143521044,1075.0 1039.2304845413264,1050.0 1039.2304845413264,1000.0 995.9292143521044,975.0 952.6279441628825,1000.0" stroke="black" stroke-width="2" /><polygon fill="rgb(1,177,185)" id="hex1" points="909.3266739736605,1125.0 952.6279441628824,1150.0 995.9292143521044,1125.0 995.9292143521044,1075.0 952.6279441628824,1050.0 909.3266739736605,1075.0" stroke="black" stroke-width="2" /><polygon fill="rgb(1,177,185)" id="hex0" points="1039.2304845413264,0.0 1082.5317547305483,25.0 1125.8330249197702,0.0 1125.8330249197702,-50.0 1082.5317547305483,-75.0 1039.2304845413264,-50.0" stroke="black" stroke-width="2" /><polygon fill="rgb(1,177,185)" id="hex0" points="995.9292143521044,75.0 1039.2304845413264,100.0 1082.5317547305483,75.0 1082.5317547305483,25.0 1039.2304845413264,0.0 995.9292143521044,25.0" stroke="black" stroke-width="2" /><polygon fill="rgb(1,177,185)" id="hex0" points="1039.2304845413264,150.0 1082.5317547305483,175.0 1125.8330249197702,150.0 1125.8330249197702,100.0 1082.5317547305483,75.0 1039.2304845413264,100.0" stroke="black" stroke-width="2" /><polygon fill="rgb(1,177,185)" id="hex0" points="995.9292143521044,225.0 1039.2304845413264,250.0 1082.5317547305483,225.0 1082.5317547305483,175.0 1039.2304845413264,150.0 995.9292143521044,175.0" stroke="black" stroke-width="2" /><polygon fill="rgb(1,177,185)" id="hex0" points="1039.2304845413264,300.0 1082.5317547305483,325.0 1125.8330249197702,300.0 1125.8330249197702,250.0 1082.5317547305483,225.0 1039.2304845413264,250.0" stroke="black" stroke-width="2" /><polygon fill="rgb(1,177,185)" id="hex0" points="995.9292143521044,375.0 1039.2304845413264,400.0 1082.5317547305483,375.0 1082.5317547305483,325.0 1039.2304845413264,300.0 995.9292143521044,325.0" stroke="black" stroke-width="2" /><polygon fill="rgb(1,177,185)" id="hex0" points="1039.2304845413264,450.0 1082.5317547305483,475.0 1125.8330249197702,450.0 1125.8330249197702,400.0 1082.5317547305483,375.0 1039.2304845413264,400.0" stroke="black" stroke-width="2" /><polygon fill="rgb(1,177,185)" id="hex0" points="995.9292143521044,525.0 1039.2304845413264,550.0 1082.5317547305483,525.0 1082.5317547305483,475.0 1039.2304845413264,450.0 995.9292143521044,475.0" stroke="black" stroke-width="2" /><polygon fill="rgb(1,177,185)" id="hex0" points="1039.2304845413264,600.0 1082.5317547305483,625.0 1125.8330249197702,600.0 1125.8330249197702,550.0 1082.5317547305483,525.0 1039.2304845413264,550.0" stroke="black" stroke-width="2" /><polygon fill="rgb(1,177,185)" id="hex0" points="995.9292143521044,675.0 1039.2304845413264,700.0 1082.5317547305483,675.0 1082.5317547305483,625.0 1039.2304845413264,600.0 995.9292143521044,625.0" stroke="black" stroke-width="2" /><polygon fill="rgb(1,177,185)" id="hex0" points="1039.2304845413264,750.0 1082.5317547305483,775.0 1125.8330249197702,750.0 1125.8330249197702,700.0 1082.5317547305483,675.0 1039.2304845413264,700.0" stroke="black" stroke-width="2" /><polygon fill="rgb(1,177,185)" id="hex0" points="995.9292143521044,825.0 1039.2304845413264,850.0 1082.5317547305483,825.0 1082.5317547305483,775.0 1039.2304845413264,750.0 995.9292143521044,775.0" stroke="black" stroke-width="2" /><polygon fill="rgb(1,177,185)" id="hex0" points="1039.2304845413264,900.0 1082.5317547305483,925.0 1125.8330249197702,900.0 1125.8330249197702,850.0 1082.5317547305483,825.0 1039.2304845413264,850.0" stroke="black" stroke-width="2" /><polygon fill="rgb(1,177,185)" id="hex0" points="995.9292143521044,975.0 1039.2304845413264,1000.0 1082.5317547305483,975.0 1082.5317547305483,925.0 1039.2304845413264,900.0 995.9292143521044,925.0" stroke="black" stroke-width="2" /><polygon fill="rgb(1,177,185)" id="hex0" points="1039.2304845413264,1050.0 1082.5317547305483,1075.0 1125.8330249197702,1050.0 1125.8330249197702,1000.0 1082.5317547305483,975.0 1039.2304845413264,1000.0" stroke="black" stroke-width="2" /><polygon fill="rgb(1,177,185)" id="hex0" points="995.9292143521044,1125.0 1039.2304845413264,1150.0 1082.5317547305483,1125.0 1082.5317547305483,1075.0 1039.2304845413264,1050.0 995.9292143521044,1075.0" stroke="black" stroke-width="2" /><polygon fill="rgb(1,177,185)" id="hex1" points="1125.8330249197702,0.0 1169.134295108992,25.0 1212.435565298214,0.0 1212.435565298214,-50.0 1169.134295108992,-75.0 1125.8330249197702,-50.0" stroke="black" stroke-width="2" /><polygon fill="rgb(1,177,185)" id="hex1" points="1082.5317547305483,75.0 1125.8330249197702,100.0 1169.134295108992,75.0 1169.134295108992,25.0 1125.8330249197702,0.0 1082.5317547305483,25.0" stroke="black" stroke-width="2" /><polygon fill="rgb(1,177,185)" id="hex1" points="1125.8330249197702,150.0 1169.134295108992,175.0 1212.435565298214,150.0 1212.435565298214,100.0 1169.134295108992,75.0 1125.8330249197702,100.0" stroke="black" stroke-width="2" /><polygon fill="rgb(1,177,185)" id="hex1" points="1082.5317547305483,225.0 1125.8330249197702,250.0 1169.134295108992,225.0 1169.134295108992,175.0 1125.8330249197702,150.0 1082.5317547305483,175.0" stroke="black" stroke-width="2" /><polygon fill="rgb(1,177,185)" id="hex1" points="1125.8330249197702,300.0 1169.134295108992,325.0 1212.435565298214,300.0 1212.435565298214,250.0 1169.134295108992,225.0 1125.8330249197702,250.0" stroke="black" stroke-width="2" /><polygon fill="rgb(1,177,185)" id="hex1" points="1082.5317547305483,375.0 1125.8330249197702,400.0 1169.134295108992,375.0 1169.134295108992,325.0 1125.8330249197702,300.0 1082.5317547305483,325.0" stroke="black" stroke-width="2" /><polygon fill="rgb(1,177,185)" id="hex1" points="1125.8330249197702,450.0 1169.134295108992,475.0 1212.435565298214,450.0 1212.435565298214,400.0 1169.134295108992,375.0 1125.8330249197702,400.0" stroke="black" stroke-width="2" /><polygon fill="rgb(1,177,185)" id="hex1" points="1082.5317547305483,525.0 1125.8330249197702,550.0 1169.134295108992,525.0 1169.134295108992,475.0 1125.8330249197702,450.0 1082.5317547305483,475.0" stroke="black" stroke-width="2" /><polygon fill="rgb(1,177,185)" id="hex1" points="1125.8330249197702,600.0 1169.134295108992,625.0 1212.435565298214,600.0 1212.435565298214,550.0 1169.134295108992,525.0 1125.8330249197702,550.0" stroke="black" stroke-width="2" /><polygon fill="rgb(1,177,185)" id="hex1" points="1082.5317547305483,675.0 1125.8330249197702,700.0 1169.134295108992,675.0 1169.134295108992,625.0 1125.8330249197702,600.0 1082.5317547305483,625.0" stroke="black" stroke-width="2" /><polygon fill="rgb(1,177,185)" id="hex1" points="1125.8330249197702,750.0 1169.134295108992,775.0 1212.435565298214,750.0 1212.435565298214,700.0 1169.134295108992,675.0 1125.8330249197702,700.0" stroke="black" stroke-width="2" /><polygon fill="rgb(1,177,185)" id="hex1" points="1082.5317547305483,825.0 1125.8330249197702,850.0 1169.134295108992,825.0 1169.134295108992,775.0 1125.8330249197702,750.0 1082.5317547305483,775.0" stroke="black" stroke-width="2" /><polygon fill="rgb(1,177,185)" id="hex1" points="1125.8330249197702,900.0 1169.134295108992,925.0 1212.435565298214,900.0 1212.435565298214,850.0 1169.134295108992,825.0 1125.8330249197702,850.0" stroke="black" stroke-width="2" /><polygon fill="rgb(1,177,185)" id="hex1" points="1082.5317547305483,975.0 1125.8330249197702,1000.0 1169.134295108992,975.0 1169.134295108992,925.0 1125.8330249197702,900.0 1082.5317547305483,925.0" stroke="black" stroke-width="2" /><polygon fill="rgb(1,177,185)" id="hex1" points="1125.8330249197702,1050.0 1169.134295108992,1075.0 1212.435565298214,1050.0 1212.435565298214,1000.0 1169.134295108992,975.0 1125.8330249197702,1000.0" stroke="black" stroke-width="2" /><polygon fill="rgb(1,177,185)" id="hex1" points="1082.5317547305483,1125.0 1125.8330249197702,1150.0 1169.134295108992,1125.0 1169.134295108992,1075.0 1125.8330249197702,1050.0 1082.5317547305483,1075.0" stroke="black" stroke-width="2" /><polygon fill="rgb(1,177,185)" id="hex0" points="1212.435565298214,0.0 1255.7368354874359,25.0 1299.0381056766578,0.0 1299.0381056766578,-50.0 1255.7368354874359,-75.0 1212.435565298214,-50.0" stroke="black" stroke-width="2" /><polygon fill="rgb(1,177,185)" id="hex0" points="1169.134295108992,75.0 1212.435565298214,100.0 1255.7368354874359,75.0 1255.7368354874359,25.0 1212.435565298214,0.0 1169.134295108992,25.0" stroke="black" stroke-width="2" /><polygon fill="rgb(1,177,185)" id="hex0" points="1212.435565298214,150.0 1255.7368354874359,175.0 1299.0381056766578,150.0 1299.0381056766578,100.0 1255.7368354874359,75.0 1212.435565298214,100.0" stroke="black" stroke-width="2" /><polygon fill="rgb(1,177,185)" id="hex0" points="1169.134295108992,225.0 1212.435565298214,250.0 1255.7368354874359,225.0 1255.7368354874359,175.0 1212.435565298214,150.0 1169.134295108992,175.0" stroke="black" stroke-width="2" /><polygon fill="rgb(1,177,185)" id="hex0" points="1212.435565298214,300.0 1255.7368354874359,325.0 1299.0381056766578,300.0 1299.0381056766578,250.0 1255.7368354874359,225.0 1212.435565298214,250.0" stroke="black" stroke-width="2" /><polygon fill="rgb(1,177,185)" id="hex0" points="1169.134295108992,375.0 1212.435565298214,400.0 1255.7368354874359,375.0 1255.7368354874359,325.0 1212.435565298214,300.0 1169.134295108992,325.0" stroke="black" stroke-width="2" /><polygon fill="rgb(1,177,185)" id="hex0" points="1212.435565298214,450.0 1255.7368354874359,475.0 1299.0381056766578,450.0 1299.0381056766578,400.0 1255.7368354874359,375.0 1212.435565298214,400.0" stroke="black" stroke-width="2" /><polygon fill="rgb(1,177,185)" id="hex0" points="1169.134295108992,525.0 1212.435565298214,550.0 1255.7368354874359,525.0 1255.7368354874359,475.0 1212.435565298214,450.0 1169.134295108992,475.0" stroke="black" stroke-width="2" /><polygon fill="rgb(1,177,185)" id="hex0" points="1212.435565298214,600.0 1255.7368354874359,625.0 1299.0381056766578,600.0 1299.0381056766578,550.0 1255.7368354874359,525.0 1212.435565298214,550.0" stroke="black" stroke-width="2" /><polygon fill="rgb(1,177,185)" id="hex0" points="1169.134295108992,675.0 1212.435565298214,700.0 1255.7368354874359,675.0 1255.7368354874359,625.0 1212.435565298214,600.0 1169.134295108992,625.0" stroke="black" stroke-width="2" /><polygon fill="rgb(1,177,185)" id="hex0" points="1212.435565298214,750.0 1255.7368354874359,775.0 1299.0381056766578,750.0 1299.0381056766578,700.0 1255.7368354874359,675.0 1212.435565298214,700.0" stroke="black" stroke-width="2" /><polygon fill="rgb(1,177,185)" id="hex0" points="1169.134295108992,825.0 1212.435565298214,850.0 1255.7368354874359,825.0 1255.7368354874359,775.0 1212.435565298214,750.0 1169.134295108992,775.0" stroke="black" stroke-width="2" /><polygon fill="rgb(1,177,185)" id="hex0" points="1212.435565298214,900.0 1255.7368354874359,925.0 1299.0381056766578,900.0 1299.0381056766578,850.0 1255.7368354874359,825.0 1212.435565298214,850.0" stroke="black" stroke-width="2" /><polygon fill="rgb(1,177,185)" id="hex0" points="1169.134295108992,975.0 1212.435565298214,1000.0 1255.7368354874359,975.0 1255.7368354874359,925.0 1212.435565298214,900.0 1169.134295108992,925.0" stroke="black" stroke-width="2" /><polygon fill="rgb(1,177,185)" id="hex0" points="1212.435565298214,1050.0 1255.7368354874359,1075.0 1299.0381056766578,1050.0 1299.0381056766578,1000.0 1255.7368354874359,975.0 1212.435565298214,1000.0" stroke="black" stroke-width="2" /><polygon fill="rgb(1,177,185)" id="hex0" points="1169.134295108992,1125.0 1212.435565298214,1150.0 1255.7368354874359,1125.0 1255.7368354874359,1075.0 1212.435565298214,1050.0 1169.134295108992,1075.0" stroke="black" stroke-width="2" /><polygon fill="rgb(1,177,185)" id="hex1" points="1299.038105676658,0.0 1342.33937586588,25.0 1385.6406460551018,0.0 1385.6406460551018,-50.0 1342.33937586588,-75.0 1299.038105676658,-50.0" stroke="black" stroke-width="2" /><polygon fill="rgb(1,177,185)" id="hex1" points="1255.7368354874359,75.0 1299.0381056766578,100.0 1342.3393758658797,75.0 1342.3393758658797,25.0 1299.0381056766578,0.0 1255.7368354874359,25.0" stroke="black" stroke-width="2" /><polygon fill="rgb(1,177,185)" id="hex1" points="1299.038105676658,150.0 1342.33937586588,175.0 1385.6406460551018,150.0 1385.6406460551018,100.0 1342.33937586588,75.0 1299.038105676658,100.0" stroke="black" stroke-width="2" /><polygon fill="rgb(1,177,185)" id="hex1" points="1255.7368354874359,225.0 1299.0381056766578,250.0 1342.3393758658797,225.0 1342.3393758658797,175.0 1299.0381056766578,150.0 1255.7368354874359,175.0" stroke="black" stroke-width="2" /><polygon fill="rgb(1,177,185)" id="hex1" points="1299.038105676658,300.0 1342.33937586588,325.0 1385.6406460551018,300.0 1385.6406460551018,250.0 1342.33937586588,225.0 1299.038105676658,250.0" stroke="black" stroke-width="2" /><polygon fill="rgb(1,177,185)" id="hex1" points="1255.7368354874359,375.0 1299.0381056766578,400.0 1342.3393758658797,375.0 1342.3393758658797,325.0 1299.0381056766578,300.0 1255.7368354874359,325.0" stroke="black" stroke-width="2" /><polygon fill="rgb(1,177,185)" id="hex1" points="1299.038105676658,450.0 1342.33937586588,475.0 1385.6406460551018,450.0 1385.6406460551018,400.0 1342.33937586588,375.0 1299.038105676658,400.0" stroke="black" stroke-width="2" /><polygon fill="rgb(1,177,185)" id="hex1" points="1255.7368354874359,525.0 1299.0381056766578,550.0 1342.3393758658797,525.0 1342.3393758658797,475.0 1299.0381056766578,450.0 1255.7368354874359,475.0" stroke="black" stroke-width="2" /><polygon fill="rgb(1,177,185)" id="hex1" points="1299.038105676658,600.0 1342.33937586588,625.0 1385.6406460551018,600.0 1385.6406460551018,550.0 1342.33937586588,525.0 1299.038105676658,550.0" stroke="black" stroke-width="2" /><polygon fill="rgb(1,177,185)" id="hex1" points="1255.7368354874359,675.0 1299.0381056766578,700.0 1342.3393758658797,675.0 1342.3393758658797,625.0 1299.0381056766578,600.0 1255.7368354874359,625.0" stroke="black" stroke-width="2" /><polygon fill="rgb(1,177,185)" id="hex1" points="1299.038105676658,750.0 1342.33937586588,775.0 1385.6406460551018,750.0 1385.6406460551018,700.0 1342.33937586588,675.0 1299.038105676658,700.0" stroke="black" stroke-width="2" /><polygon fill="rgb(1,177,185)" id="hex1" points="1255.7368354874359,825.0 1299.0381056766578,850.0 1342.3393758658797,825.0 1342.3393758658797,775.0 1299.0381056766578,750.0 1255.7368354874359,775.0" stroke="black" stroke-width="2" /><polygon fill="rgb(1,177,185)" id="hex1" points="1299.038105676658,900.0 1342.33937586588,925.0 1385.6406460551018,900.0 1385.6406460551018,850.0 1342.33937586588,825.0 1299.038105676658,850.0" stroke="black" stroke-width="2" /><polygon fill="rgb(1,177,185)" id="hex1" points="1255.7368354874359,975.0 1299.0381056766578,1000.0 1342.3393758658797,975.0 1342.3393758658797,925.0 1299.0381056766578,900.0 1255.7368354874359,925.0" stroke="black" stroke-width="2" /><polygon fill="rgb(1,177,185)" id="hex1" points="1299.038105676658,1050.0 1342.33937586588,1075.0 1385.6406460551018,1050.0 1385.6406460551018,1000.0 1342.33937586588,975.0 1299.038105676658,1000.0" stroke="black" stroke-width="2" /><polygon fill="rgb(1,177,185)" id="hex1" points="1255.7368354874359,1125.0 1299.0381056766578,1150.0 1342.3393758658797,1125.0 1342.3393758658797,1075.0 1299.0381056766578,1050.0 1255.7368354874359,1075.0" stroke="black" stroke-width="2" /><polygon fill="rgb(1,177,185)" id="hex0" points="1385.6406460551018,0.0 1428.9419162443237,25.0 1472.2431864335456,0.0 1472.2431864335456,-50.0 1428.9419162443237,-75.0 1385.6406460551018,-50.0" stroke="black" stroke-width="2" /><polygon fill="rgb(1,177,185)" id="hex0" points="1342.33937586588,75.0 1385.6406460551018,100.0 1428.9419162443237,75.0 1428.9419162443237,25.0 1385.6406460551018,0.0 1342.33937586588,25.0" stroke="black" stroke-width="2" /><polygon fill="rgb(1,177,185)" id="hex0" points="1385.6406460551018,150.0 1428.9419162443237,175.0 1472.2431864335456,150.0 1472.2431864335456,100.0 1428.9419162443237,75.0 1385.6406460551018,100.0" stroke="black" stroke-width="2" /><polygon fill="rgb(1,177,185)" id="hex0" points="1342.33937586588,225.0 1385.6406460551018,250.0 1428.9419162443237,225.0 1428.9419162443237,175.0 1385.6406460551018,150.0 1342.33937586588,175.0" stroke="black" stroke-width="2" /><polygon fill="rgb(1,177,185)" id="hex0" points="1385.6406460551018,300.0 1428.9419162443237,325.0 1472.2431864335456,300.0 1472.2431864335456,250.0 1428.9419162443237,225.0 1385.6406460551018,250.0" stroke="black" stroke-width="2" /><polygon fill="rgb(1,177,185)" id="hex0" points="1342.33937586588,375.0 1385.6406460551018,400.0 1428.9419162443237,375.0 1428.9419162443237,325.0 1385.6406460551018,300.0 1342.33937586588,325.0" stroke="black" stroke-width="2" /><polygon fill="rgb(1,177,185)" id="hex0" points="1385.6406460551018,450.0 1428.9419162443237,475.0 1472.2431864335456,450.0 1472.2431864335456,400.0 1428.9419162443237,375.0 1385.6406460551018,400.0" stroke="black" stroke-width="2" /><polygon fill="rgb(1,177,185)" id="hex0" points="1342.33937586588,525.0 1385.6406460551018,550.0 1428.9419162443237,525.0 1428.9419162443237,475.0 1385.6406460551018,450.0 1342.33937586588,475.0" stroke="black" stroke-width="2" /><polygon fill="rgb(1,177,185)" id="hex0" points="1385.6406460551018,600.0 1428.9419162443237,625.0 1472.2431864335456,600.0 1472.2431864335456,550.0 1428.9419162443237,525.0 1385.6406460551018,550.0" stroke="black" stroke-width="2" /><polygon fill="rgb(1,177,185)" id="hex0" points="1342.33937586588,675.0 1385.6406460551018,700.0 1428.9419162443237,675.0 1428.9419162443237,625.0 1385.6406460551018,600.0 1342.33937586588,625.0" stroke="black" stroke-width="2" /><polygon fill="rgb(1,177,185)" id="hex0" points="1385.6406460551018,750.0 1428.9419162443237,775.0 1472.2431864335456,750.0 1472.2431864335456,700.0 1428.9419162443237,675.0 1385.6406460551018,700.0" stroke="black" stroke-width="2" /><polygon fill="rgb(1,177,185)" id="hex0" points="1342.33937586588,825.0 1385.6406460551018,850.0 1428.9419162443237,825.0 1428.9419162443237,775.0 1385.6406460551018,750.0 1342.33937586588,775.0" stroke="black" stroke-width="2" /><polygon fill="rgb(1,177,185)" id="hex0" points="1385.6406460551018,900.0 1428.9419162443237,925.0 1472.2431864335456,900.0 1472.2431864335456,850.0 1428.9419162443237,825.0 1385.6406460551018,850.0" stroke="black" stroke-width="2" /><polygon fill="rgb(1,177,185)" id="hex0" points="1342.33937586588,975.0 1385.6406460551018,1000.0 1428.9419162443237,975.0 1428.9419162443237,925.0 1385.6406460551018,900.0 1342.33937586588,925.0" stroke="black" stroke-width="2" /><polygon fill="rgb(1,177,185)" id="hex0" points="1385.6406460551018,1050.0 1428.9419162443237,1075.0 1472.2431864335456,1050.0 1472.2431864335456,1000.0 1428.9419162443237,975.0 1385.6406460551018,1000.0" stroke="black" stroke-width="2" /><polygon fill="rgb(1,177,185)" id="hex0" points="1342.33937586588,1125.0 1385.6406460551018,1150.0 1428.9419162443237,1125.0 1428.9419162443237,1075.0 1385.6406460551018,1050.0 1342.33937586588,1075.0" stroke="black" stroke-width="2" /><polygon fill="rgb(1,177,185)" id="hex1" points="1472.2431864335456,0.0 1515.5444566227675,25.0 1558.8457268119894,0.0 1558.8457268119894,-50.0 1515.5444566227675,-75.0 1472.2431864335456,-50.0" stroke="black" stroke-width="2" /><polygon fill="rgb(1,177,185)" id="hex1" points="1428.9419162443237,75.0 1472.2431864335456,100.0 1515.5444566227675,75.0 1515.5444566227675,25.0 1472.2431864335456,0.0 1428.9419162443237,25.0" stroke="black" stroke-width="2" /><polygon fill="rgb(1,177,185)" id="hex1" points="1472.2431864335456,150.0 1515.5444566227675,175.0 1558.8457268119894,150.0 1558.8457268119894,100.0 1515.5444566227675,75.0 1472.2431864335456,100.0" stroke="black" stroke-width="2" /><polygon fill="rgb(1,177,185)" id="hex1" points="1428.9419162443237,225.0 1472.2431864335456,250.0 1515.5444566227675,225.0 1515.5444566227675,175.0 1472.2431864335456,150.0 1428.9419162443237,175.0" stroke="black" stroke-width="2" /><polygon fill="rgb(1,177,185)" id="hex1" points="1472.2431864335456,300.0 1515.5444566227675,325.0 1558.8457268119894,300.0 1558.8457268119894,250.0 1515.5444566227675,225.0 1472.2431864335456,250.0" stroke="black" stroke-width="2" /><polygon fill="rgb(1,177,185)" id="hex1" points="1428.9419162443237,375.0 1472.2431864335456,400.0 1515.5444566227675,375.0 1515.5444566227675,325.0 1472.2431864335456,300.0 1428.9419162443237,325.0" stroke="black" stroke-width="2" /><polygon fill="rgb(1,177,185)" id="hex1" points="1472.2431864335456,450.0 1515.5444566227675,475.0 1558.8457268119894,450.0 1558.8457268119894,400.0 1515.5444566227675,375.0 1472.2431864335456,400.0" stroke="black" stroke-width="2" /><polygon fill="rgb(1,177,185)" id="hex1" points="1428.9419162443237,525.0 1472.2431864335456,550.0 1515.5444566227675,525.0 1515.5444566227675,475.0 1472.2431864335456,450.0 1428.9419162443237,475.0" stroke="black" stroke-width="2" /><polygon fill="rgb(1,177,185)" id="hex1" points="1472.2431864335456,600.0 1515.5444566227675,625.0 1558.8457268119894,600.0 1558.8457268119894,550.0 1515.5444566227675,525.0 1472.2431864335456,550.0" stroke="black" stroke-width="2" /><polygon fill="rgb(1,177,185)" id="hex1" points="1428.9419162443237,675.0 1472.2431864335456,700.0 1515.5444566227675,675.0 1515.5444566227675,625.0 1472.2431864335456,600.0 1428.9419162443237,625.0" stroke="black" stroke-width="2" /><polygon fill="rgb(1,177,185)" id="hex1" points="1472.2431864335456,750.0 1515.5444566227675,775.0 1558.8457268119894,750.0 1558.8457268119894,700.0 1515.5444566227675,675.0 1472.2431864335456,700.0" stroke="black" stroke-width="2" /><polygon fill="rgb(1,177,185)" id="hex1" points="1428.9419162443237,825.0 1472.2431864335456,850.0 1515.5444566227675,825.0 1515.5444566227675,775.0 1472.2431864335456,750.0 1428.9419162443237,775.0" stroke="black" stroke-width="2" /><polygon fill="rgb(1,177,185)" id="hex1" points="1472.2431864335456,900.0 1515.5444566227675,925.0 1558.8457268119894,900.0 1558.8457268119894,850.0 1515.5444566227675,825.0 1472.2431864335456,850.0" stroke="black" stroke-width="2" /><polygon fill="rgb(1,177,185)" id="hex1" points="1428.9419162443237,975.0 1472.2431864335456,1000.0 1515.5444566227675,975.0 1515.5444566227675,925.0 1472.2431864335456,900.0 1428.9419162443237,925.0" stroke="black" stroke-width="2" /><polygon fill="rgb(1,177,185)" id="hex1" points="1472.2431864335456,1050.0 1515.5444566227675,1075.0 1558.8457268119894,1050.0 1558.8457268119894,1000.0 1515.5444566227675,975.0 1472.2431864335456,1000.0" stroke="black" stroke-width="2" /><polygon fill="rgb(1,177,185)" id="hex1" points="1428.9419162443237,1125.0 1472.2431864335456,1150.0 1515.5444566227675,1125.0 1515.5444566227675,1075.0 1472.2431864335456,1050.0 1428.9419162443237,1075.0" stroke="black" stroke-width="2" /><polygon fill="rgb(1,177,185)" id="hex0" points="1558.8457268119894,0.0 1602.1469970012113,25.0 1645.4482671904332,0.0 1645.4482671904332,-50.0 1602.1469970012113,-75.0 1558.8457268119894,-50.0" stroke="black" stroke-width="2" /><polygon fill="rgb(1,177,185)" id="hex0" points="1515.5444566227675,75.0 1558.8457268119894,100.0 1602.1469970012113,75.0 1602.1469970012113,25.0 1558.8457268119894,0.0 1515.5444566227675,25.0" stroke="black" stroke-width="2" /><polygon fill="rgb(1,177,185)" id="hex0" points="1558.8457268119894,150.0 1602.1469970012113,175.0 1645.4482671904332,150.0 1645.4482671904332,100.0 1602.1469970012113,75.0 1558.8457268119894,100.0" stroke="black" stroke-width="2" /><polygon fill="rgb(1,177,185)" id="hex0" points="1515.5444566227675,225.0 1558.8457268119894,250.0 1602.1469970012113,225.0 1602.1469970012113,175.0 1558.8457268119894,150.0 1515.5444566227675,175.0" stroke="black" stroke-width="2" /><polygon fill="rgb(1,177,185)" id="hex0" points="1558.8457268119894,300.0 1602.1469970012113,325.0 1645.4482671904332,300.0 1645.4482671904332,250.0 1602.1469970012113,225.0 1558.8457268119894,250.0" stroke="black" stroke-width="2" /><polygon fill="rgb(1,177,185)" id="hex0" points="1515.5444566227675,375.0 1558.8457268119894,400.0 1602.1469970012113,375.0 1602.1469970012113,325.0 1558.8457268119894,300.0 1515.5444566227675,325.0" stroke="black" stroke-width="2" /><polygon fill="rgb(1,177,185)" id="hex0" points="1558.8457268119894,450.0 1602.1469970012113,475.0 1645.4482671904332,450.0 1645.4482671904332,400.0 1602.1469970012113,375.0 1558.8457268119894,400.0" stroke="black" stroke-width="2" /><polygon fill="rgb(1,177,185)" id="hex0" points="1515.5444566227675,525.0 1558.8457268119894,550.0 1602.1469970012113,525.0 1602.1469970012113,475.0 1558.8457268119894,450.0 1515.5444566227675,475.0" stroke="black" stroke-width="2" /><polygon fill="rgb(1,177,185)" id="hex0" points="1558.8457268119894,600.0 1602.1469970012113,625.0 1645.4482671904332,600.0 1645.4482671904332,550.0 1602.1469970012113,525.0 1558.8457268119894,550.0" stroke="black" stroke-width="2" /><polygon fill="rgb(1,177,185)" id="hex0" points="1515.5444566227675,675.0 1558.8457268119894,700.0 1602.1469970012113,675.0 1602.1469970012113,625.0 1558.8457268119894,600.0 1515.5444566227675,625.0" stroke="black" stroke-width="2" /><polygon fill="rgb(1,177,185)" id="hex0" points="1558.8457268119894,750.0 1602.1469970012113,775.0 1645.4482671904332,750.0 1645.4482671904332,700.0 1602.1469970012113,675.0 1558.8457268119894,700.0" stroke="black" stroke-width="2" /><polygon fill="rgb(1,177,185)" id="hex0" points="1515.5444566227675,825.0 1558.8457268119894,850.0 1602.1469970012113,825.0 1602.1469970012113,775.0 1558.8457268119894,750.0 1515.5444566227675,775.0" stroke="black" stroke-width="2" /><polygon fill="rgb(1,177,185)" id="hex0" points="1558.8457268119894,900.0 1602.1469970012113,925.0 1645.4482671904332,900.0 1645.4482671904332,850.0 1602.1469970012113,825.0 1558.8457268119894,850.0" stroke="black" stroke-width="2" /><polygon fill="rgb(1,177,185)" id="hex0" points="1515.5444566227675,975.0 1558.8457268119894,1000.0 1602.1469970012113,975.0 1602.1469970012113,925.0 1558.8457268119894,900.0 1515.5444566227675,925.0" stroke="black" stroke-width="2" /><polygon fill="rgb(1,177,185)" id="hex0" points="1558.8457268119894,1050.0 1602.1469970012113,1075.0 1645.4482671904332,1050.0 1645.4482671904332,1000.0 1602.1469970012113,975.0 1558.8457268119894,1000.0" stroke="black" stroke-width="2" /><polygon fill="rgb(1,177,185)" id="hex0" points="1515.5444566227675,1125.0 1558.8457268119894,1150.0 1602.1469970012113,1125.0 1602.1469970012113,1075.0 1558.8457268119894,1050.0 1515.5444566227675,1075.0" stroke="black" stroke-width="2" /><polygon fill="rgb(1,177,185)" id="hex1" points="1645.4482671904334,0.0 1688.7495373796553,25.0 1732.0508075688772,0.0 1732.0508075688772,-50.0 1688.7495373796553,-75.0 1645.4482671904334,-50.0" stroke="black" stroke-width="2" /><polygon fill="rgb(1,177,185)" id="hex1" points="1602.1469970012115,75.0 1645.4482671904334,100.0 1688.7495373796553,75.0 1688.7495373796553,25.0 1645.4482671904334,0.0 1602.1469970012115,25.0" stroke="black" stroke-width="2" /><polygon fill="rgb(1,177,185)" id="hex1" points="1645.4482671904334,150.0 1688.7495373796553,175.0 1732.0508075688772,150.0 1732.0508075688772,100.0 1688.7495373796553,75.0 1645.4482671904334,100.0" stroke="black" stroke-width="2" /><polygon fill="rgb(1,177,185)" id="hex1" points="1602.1469970012115,225.0 1645.4482671904334,250.0 1688.7495373796553,225.0 1688.7495373796553,175.0 1645.4482671904334,150.0 1602.1469970012115,175.0" stroke="black" stroke-width="2" /><polygon fill="rgb(1,177,185)" id="hex1" points="1645.4482671904334,300.0 1688.7495373796553,325.0 1732.0508075688772,300.0 1732.0508075688772,250.0 1688.7495373796553,225.0 1645.4482671904334,250.0" stroke="black" stroke-width="2" /><polygon fill="rgb(1,177,185)" id="hex1" points="1602.1469970012115,375.0 1645.4482671904334,400.0 1688.7495373796553,375.0 1688.7495373796553,325.0 1645.4482671904334,300.0 1602.1469970012115,325.0" stroke="black" stroke-width="2" /><polygon fill="rgb(1,177,185)" id="hex1" points="1645.4482671904334,450.0 1688.7495373796553,475.0 1732.0508075688772,450.0 1732.0508075688772,400.0 1688.7495373796553,375.0 1645.4482671904334,400.0" stroke="black" stroke-width="2" /><polygon fill="rgb(1,177,185)" id="hex1" points="1602.1469970012115,525.0 1645.4482671904334,550.0 1688.7495373796553,525.0 1688.7495373796553,475.0 1645.4482671904334,450.0 1602.1469970012115,475.0" stroke="black" stroke-width="2" /><polygon fill="rgb(1,177,185)" id="hex1" points="1645.4482671904334,600.0 1688.7495373796553,625.0 1732.0508075688772,600.0 1732.0508075688772,550.0 1688.7495373796553,525.0 1645.4482671904334,550.0" stroke="black" stroke-width="2" /><polygon fill="rgb(1,177,185)" id="hex1" points="1602.1469970012115,675.0 1645.4482671904334,700.0 1688.7495373796553,675.0 1688.7495373796553,625.0 1645.4482671904334,600.0 1602.1469970012115,625.0" stroke="black" stroke-width="2" /><polygon fill="rgb(1,177,185)" id="hex1" points="1645.4482671904334,750.0 1688.7495373796553,775.0 1732.0508075688772,750.0 1732.0508075688772,700.0 1688.7495373796553,675.0 1645.4482671904334,700.0" stroke="black" stroke-width="2" /><polygon fill="rgb(1,177,185)" id="hex1" points="1602.1469970012115,825.0 1645.4482671904334,850.0 1688.7495373796553,825.0 1688.7495373796553,775.0 1645.4482671904334,750.0 1602.1469970012115,775.0" stroke="black" stroke-width="2" /><polygon fill="rgb(1,177,185)" id="hex1" points="1645.4482671904334,900.0 1688.7495373796553,925.0 1732.0508075688772,900.0 1732.0508075688772,850.0 1688.7495373796553,825.0 1645.4482671904334,850.0" stroke="black" stroke-width="2" /><polygon fill="rgb(1,177,185)" id="hex1" points="1602.1469970012115,975.0 1645.4482671904334,1000.0 1688.7495373796553,975.0 1688.7495373796553,925.0 1645.4482671904334,900.0 1602.1469970012115,925.0" stroke="black" stroke-width="2" /><polygon fill="rgb(1,177,185)" id="hex1" points="1645.4482671904334,1050.0 1688.7495373796553,1075.0 1732.0508075688772,1050.0 1732.0508075688772,1000.0 1688.7495373796553,975.0 1645.4482671904334,1000.0" stroke="black" stroke-width="2" /><polygon fill="rgb(1,177,185)" id="hex1" points="1602.1469970012115,1125.0 1645.4482671904334,1150.0 1688.7495373796553,1125.0 1688.7495373796553,1075.0 1645.4482671904334,1050.0 1602.1469970012115,1075.0" stroke="black" stroke-width="2" /><polygon fill="rgb(1,177,185)" id="hex0" points="1732.0508075688772,0.0 1775.352077758099,25.0 1818.653347947321,0.0 1818.653347947321,-50.0 1775.352077758099,-75.0 1732.0508075688772,-50.0" stroke="black" stroke-width="2" /><polygon fill="rgb(1,177,185)" id="hex0" points="1688.7495373796553,75.0 1732.0508075688772,100.0 1775.352077758099,75.0 1775.352077758099,25.0 1732.0508075688772,0.0 1688.7495373796553,25.0" stroke="black" stroke-width="2" /><polygon fill="rgb(1,177,185)" id="hex0" points="1732.0508075688772,150.0 1775.352077758099,175.0 1818.653347947321,150.0 1818.653347947321,100.0 1775.352077758099,75.0 1732.0508075688772,100.0" stroke="black" stroke-width="2" /><polygon fill="rgb(1,177,185)" id="hex0" points="1688.7495373796553,225.0 1732.0508075688772,250.0 1775.352077758099,225.0 1775.352077758099,175.0 1732.0508075688772,150.0 1688.7495373796553,175.0" stroke="black" stroke-width="2" /><polygon fill="rgb(1,177,185)" id="hex0" points="1732.0508075688772,300.0 1775.352077758099,325.0 1818.653347947321,300.0 1818.653347947321,250.0 1775.352077758099,225.0 1732.0508075688772,250.0" stroke="black" stroke-width="2" /><polygon fill="rgb(1,177,185)" id="hex0" points="1688.7495373796553,375.0 1732.0508075688772,400.0 1775.352077758099,375.0 1775.352077758099,325.0 1732.0508075688772,300.0 1688.7495373796553,325.0" stroke="black" stroke-width="2" /><polygon fill="rgb(1,177,185)" id="hex0" points="1732.0508075688772,450.0 1775.352077758099,475.0 1818.653347947321,450.0 1818.653347947321,400.0 1775.352077758099,375.0 1732.0508075688772,400.0" stroke="black" stroke-width="2" /><polygon fill="rgb(1,177,185)" id="hex0" points="1688.7495373796553,525.0 1732.0508075688772,550.0 1775.352077758099,525.0 1775.352077758099,475.0 1732.0508075688772,450.0 1688.7495373796553,475.0" stroke="black" stroke-width="2" /><polygon fill="rgb(1,177,185)" id="hex0" points="1732.0508075688772,600.0 1775.352077758099,625.0 1818.653347947321,600.0 1818.653347947321,550.0 1775.352077758099,525.0 1732.0508075688772,550.0" stroke="black" stroke-width="2" /><polygon fill="rgb(1,177,185)" id="hex0" points="1688.7495373796553,675.0 1732.0508075688772,700.0 1775.352077758099,675.0 1775.352077758099,625.0 1732.0508075688772,600.0 1688.7495373796553,625.0" stroke="black" stroke-width="2" /><polygon fill="rgb(1,177,185)" id="hex0" points="1732.0508075688772,750.0 1775.352077758099,775.0 1818.653347947321,750.0 1818.653347947321,700.0 1775.352077758099,675.0 1732.0508075688772,700.0" stroke="black" stroke-width="2" /><polygon fill="rgb(1,177,185)" id="hex0" points="1688.7495373796553,825.0 1732.0508075688772,850.0 1775.352077758099,825.0 1775.352077758099,775.0 1732.0508075688772,750.0 1688.7495373796553,775.0" stroke="black" stroke-width="2" /><polygon fill="rgb(1,177,185)" id="hex0" points="1732.0508075688772,900.0 1775.352077758099,925.0 1818.653347947321,900.0 1818.653347947321,850.0 1775.352077758099,825.0 1732.0508075688772,850.0" stroke="black" stroke-width="2" /><polygon fill="rgb(1,177,185)" id="hex0" points="1688.7495373796553,975.0 1732.0508075688772,1000.0 1775.352077758099,975.0 1775.352077758099,925.0 1732.0508075688772,900.0 1688.7495373796553,925.0" stroke="black" stroke-width="2" /><polygon fill="rgb(1,177,185)" id="hex0" points="1732.0508075688772,1050.0 1775.352077758099,1075.0 1818.653347947321,1050.0 1818.653347947321,1000.0 1775.352077758099,975.0 1732.0508075688772,1000.0" stroke="black" stroke-width="2" /><polygon fill="rgb(1,177,185)" id="hex0" points="1688.7495373796553,1125.0 1732.0508075688772,1150.0 1775.352077758099,1125.0 1775.352077758099,1075.0 1732.0508075688772,1050.0 1688.7495373796553,1075.0" stroke="black" stroke-width="2" /><polygon fill="rgb(1,177,185)" id="hex1" points="1818.653347947321,0.0 1861.9546181365429,25.0 1905.2558883257648,0.0 1905.2558883257648,-50.0 1861.9546181365429,-75.0 1818.653347947321,-50.0" stroke="black" stroke-width="2" /><polygon fill="rgb(1,177,185)" id="hex1" points="1775.352077758099,75.0 1818.653347947321,100.0 1861.9546181365429,75.0 1861.9546181365429,25.0 1818.653347947321,0.0 1775.352077758099,25.0" stroke="black" stroke-width="2" /><polygon fill="rgb(1,177,185)" id="hex1" points="1818.653347947321,150.0 1861.9546181365429,175.0 1905.2558883257648,150.0 1905.2558883257648,100.0 1861.9546181365429,75.0 1818.653347947321,100.0" stroke="black" stroke-width="2" /><polygon fill="rgb(1,177,185)" id="hex1" points="1775.352077758099,225.0 1818.653347947321,250.0 1861.9546181365429,225.0 1861.9546181365429,175.0 1818.653347947321,150.0 1775.352077758099,175.0" stroke="black" stroke-width="2" /><polygon fill="rgb(1,177,185)" id="hex1" points="1818.653347947321,300.0 1861.9546181365429,325.0 1905.2558883257648,300.0 1905.2558883257648,250.0 1861.9546181365429,225.0 1818.653347947321,250.0" stroke="black" stroke-width="2" /><polygon fill="rgb(1,177,185)" id="hex1" points="1775.352077758099,375.0 1818.653347947321,400.0 1861.9546181365429,375.0 1861.9546181365429,325.0 1818.653347947321,300.0 1775.352077758099,325.0" stroke="black" stroke-width="2" /><polygon fill="rgb(1,177,185)" id="hex1" points="1818.653347947321,450.0 1861.9546181365429,475.0 1905.2558883257648,450.0 1905.2558883257648,400.0 1861.9546181365429,375.0 1818.653347947321,400.0" stroke="black" stroke-width="2" /><polygon fill="rgb(1,177,185)" id="hex1" points="1775.352077758099,525.0 1818.653347947321,550.0 1861.9546181365429,525.0 1861.9546181365429,475.0 1818.653347947321,450.0 1775.352077758099,475.0" stroke="black" stroke-width="2" /><polygon fill="rgb(1,177,185)" id="hex1" points="1818.653347947321,600.0 1861.9546181365429,625.0 1905.2558883257648,600.0 1905.2558883257648,550.0 1861.9546181365429,525.0 1818.653347947321,550.0" stroke="black" stroke-width="2" /><polygon fill="rgb(1,177,185)" id="hex1" points="1775.352077758099,675.0 1818.653347947321,700.0 1861.9546181365429,675.0 1861.9546181365429,625.0 1818.653347947321,600.0 1775.352077758099,625.0" stroke="black" stroke-width="2" /><polygon fill="rgb(1,177,185)" id="hex1" points="1818.653347947321,750.0 1861.9546181365429,775.0 1905.2558883257648,750.0 1905.2558883257648,700.0 1861.9546181365429,675.0 1818.653347947321,700.0" stroke="black" stroke-width="2" /><polygon fill="rgb(1,177,185)" id="hex1" points="1775.352077758099,825.0 1818.653347947321,850.0 1861.9546181365429,825.0 1861.9546181365429,775.0 1818.653347947321,750.0 1775.352077758099,775.0" stroke="black" stroke-width="2" /><polygon fill="rgb(1,177,185)" id="hex1" points="1818.653347947321,900.0 1861.9546181365429,925.0 1905.2558883257648,900.0 1905.2558883257648,850.0 1861.9546181365429,825.0 1818.653347947321,850.0" stroke="black" stroke-width="2" /><polygon fill="rgb(1,177,185)" id="hex1" points="1775.352077758099,975.0 1818.653347947321,1000.0 1861.9546181365429,975.0 1861.9546181365429,925.0 1818.653347947321,900.0 1775.352077758099,925.0" stroke="black" stroke-width="2" /><polygon fill="rgb(1,177,185)" id="hex1" points="1818.653347947321,1050.0 1861.9546181365429,1075.0 1905.2558883257648,1050.0 1905.2558883257648,1000.0 1861.9546181365429,975.0 1818.653347947321,1000.0" stroke="black" stroke-width="2" /><polygon fill="rgb(1,177,185)" id="hex1" points="1775.352077758099,1125.0 1818.653347947321,1150.0 1861.9546181365429,1125.0 1861.9546181365429,1075.0 1818.653347947321,1050.0 1775.352077758099,1075.0" stroke="black" stroke-width="2" /><polygon fill="rgb(1,177,185)" id="hex0" points="1905.255888325765,0.0 1948.557158514987,25.0 1991.8584287042088,0.0 1991.8584287042088,-50.0 1948.557158514987,-75.0 1905.255888325765,-50.0" stroke="black" stroke-width="2" /><polygon fill="rgb(1,177,185)" id="hex0" points="1861.9546181365429,75.0 1905.2558883257648,100.0 1948.5571585149867,75.0 1948.5571585149867,25.0 1905.2558883257648,0.0 1861.9546181365429,25.0" stroke="black" stroke-width="2" /><polygon fill="rgb(1,177,185)" id="hex0" points="1905.255888325765,150.0 1948.557158514987,175.0 1991.8584287042088,150.0 1991.8584287042088,100.0 1948.557158514987,75.0 1905.255888325765,100.0" stroke="black" stroke-width="2" /><polygon fill="rgb(1,177,185)" id="hex0" points="1861.9546181365429,225.0 1905.2558883257648,250.0 1948.5571585149867,225.0 1948.5571585149867,175.0 1905.2558883257648,150.0 1861.9546181365429,175.0" stroke="black" stroke-width="2" /><polygon fill="rgb(1,177,185)" id="hex0" points="1905.255888325765,300.0 1948.557158514987,325.0 1991.8584287042088,300.0 1991.8584287042088,250.0 1948.557158514987,225.0 1905.255888325765,250.0" stroke="black" stroke-width="2" /><polygon fill="rgb(1,177,185)" id="hex0" points="1861.9546181365429,375.0 1905.2558883257648,400.0 1948.5571585149867,375.0 1948.5571585149867,325.0 1905.2558883257648,300.0 1861.9546181365429,325.0" stroke="black" stroke-width="2" /><polygon fill="rgb(1,177,185)" id="hex0" points="1905.255888325765,450.0 1948.557158514987,475.0 1991.8584287042088,450.0 1991.8584287042088,400.0 1948.557158514987,375.0 1905.255888325765,400.0" stroke="black" stroke-width="2" /><polygon fill="rgb(1,177,185)" id="hex0" points="1861.9546181365429,525.0 1905.2558883257648,550.0 1948.5571585149867,525.0 1948.5571585149867,475.0 1905.2558883257648,450.0 1861.9546181365429,475.0" stroke="black" stroke-width="2" /><polygon fill="rgb(1,177,185)" id="hex0" points="1905.255888325765,600.0 1948.557158514987,625.0 1991.8584287042088,600.0 1991.8584287042088,550.0 1948.557158514987,525.0 1905.255888325765,550.0" stroke="black" stroke-width="2" /><polygon fill="rgb(1,177,185)" id="hex0" points="1861.9546181365429,675.0 1905.2558883257648,700.0 1948.5571585149867,675.0 1948.5571585149867,625.0 1905.2558883257648,600.0 1861.9546181365429,625.0" stroke="black" stroke-width="2" /><polygon fill="rgb(1,177,185)" id="hex0" points="1905.255888325765,750.0 1948.557158514987,775.0 1991.8584287042088,750.0 1991.8584287042088,700.0 1948.557158514987,675.0 1905.255888325765,700.0" stroke="black" stroke-width="2" /><polygon fill="rgb(1,177,185)" id="hex0" points="1861.9546181365429,825.0 1905.2558883257648,850.0 1948.5571585149867,825.0 1948.5571585149867,775.0 1905.2558883257648,750.0 1861.9546181365429,775.0" stroke="black" stroke-width="2" /><polygon fill="rgb(1,177,185)" id="hex0" points="1905.255888325765,900.0 1948.557158514987,925.0 1991.8584287042088,900.0 1991.8584287042088,850.0 1948.557158514987,825.0 1905.255888325765,850.0" stroke="black" stroke-width="2" /><polygon fill="rgb(1,177,185)" id="hex0" points="1861.9546181365429,975.0 1905.2558883257648,1000.0 1948.5571585149867,975.0 1948.5571585149867,925.0 1905.2558883257648,900.0 1861.9546181365429,925.0" stroke="black" stroke-width="2" /><polygon fill="rgb(1,177,185)" id="hex0" points="1905.255888325765,1050.0 1948.557158514987,1075.0 1991.8584287042088,1050.0 1991.8584287042088,1000.0 1948.557158514987,975.0 1905.255888325765,1000.0" stroke="black" stroke-width="2" /><polygon fill="rgb(1,177,185)" id="hex0" points="1861.9546181365429,1125.0 1905.2558883257648,1150.0 1948.5571585149867,1125.0 1948.5571585149867,1075.0 1905.2558883257648,1050.0 1861.9546181365429,1075.0" stroke="black" stroke-width="2" /></svg>
